<svg width="886" height="180" viewBox="0 0 886 180" fill="none" xmlns="http://www.w3.org/2000/svg">
<path fill-rule="evenodd" clip-rule="evenodd" d="M0 -0.00512695H843V0.0121647C843.045 0.01148 843.09 0.0111633 843.134 0.0112176L877.216 0.0523955C883.156 0.0595718 887.018 6.30859 884.367 11.6236L846.866 86.815C846.061 88.4309 844.913 89.5768 843.606 90.2999C844.628 91.0183 845.521 92.0278 846.184 93.3543L883.673 168.377C886.329 173.692 882.468 179.946 876.525 179.953L842.454 179.994C842.017 179.995 841.588 179.96 841.17 179.893H0V-0.00512695Z" fill="#9E9E9E"/>
<path d="M54.0401 54.3284C55.0268 60.8781 61.7998 65.2776 61.7998 65.2776C61.7998 65.2776 66.9757 59.058 65.9929 52.5072C65.0039 45.9498 58.2282 41.5553 58.2282 41.5553C58.2282 41.5553 53.0572 47.7776 54.0401 54.3284ZM54.0888 77.2799C58.4373 82.2873 66.5431 82.4181 66.5431 82.4181C66.5431 82.4181 67.6002 74.4292 63.2518 69.4219C58.9033 64.4146 50.7924 64.2811 50.7924 64.2811C50.7924 64.2811 49.7364 72.2737 54.0888 77.2799ZM63.0866 96.6917C69.3166 99.0373 76.5309 95.3291 76.5309 95.3291C76.5309 95.3291 73.6398 87.815 67.4097 85.4694C61.1796 83.1238 53.9653 86.8319 53.9653 86.8319C53.9653 86.8319 56.8565 94.3461 63.0866 96.6917ZM81.7809 109.216C88.3702 110.231 94.6651 105.126 94.6651 105.126C94.6651 105.126 90.2728 98.3753 83.6825 97.3564C77.0932 96.3413 70.8033 101.449 70.8033 101.449C70.8033 101.449 75.1917 108.201 81.7809 109.216ZM67.5637 35.2914C64.134 40.9895 66.5291 48.6708 66.5291 48.6708C66.5291 48.6708 74.4956 47.1188 77.9253 41.4207C81.3551 35.7227 78.9589 28.0375 78.9589 28.0375C78.9589 28.0375 70.9935 29.5933 67.5637 35.2914Z" fill="#FAFAFA"/>
<path d="M119.186 40.9149C118.892 38.5149 118.066 36.6749 116.706 35.3949C115.346 34.0882 113.572 33.4215 111.386 33.3949C109.999 33.3949 108.719 33.7015 107.546 34.3149C106.372 34.9282 105.359 35.7949 104.506 36.9149C103.652 38.0082 102.986 39.3149 102.506 40.8349C102.052 42.3282 101.826 43.9682 101.826 45.7549C101.826 48.1815 102.252 50.3415 103.106 52.2349C103.959 54.1015 105.132 55.5549 106.626 56.5949C108.146 57.6349 109.866 58.1549 111.786 58.1549C113.492 58.1549 115.172 57.7549 116.826 56.9549C118.506 56.1282 119.892 54.9682 120.986 53.4749L122.306 54.5949C121.106 56.2482 119.826 57.5149 118.466 58.3949C117.106 59.2749 115.746 59.8615 114.386 60.1549C113.052 60.4749 111.839 60.6349 110.746 60.6349C108.746 60.6349 106.906 60.2749 105.226 59.5549C103.546 58.8349 102.092 57.8349 100.866 56.5549C99.6658 55.2482 98.7324 53.7415 98.0658 52.0349C97.4258 50.3015 97.1058 48.4349 97.1058 46.4349C97.1058 44.5682 97.3991 42.7415 97.9858 40.9549C98.5724 39.1682 99.4391 37.5549 100.586 36.1149C101.732 34.6482 103.172 33.4882 104.906 32.6349C106.666 31.7815 108.706 31.3549 111.026 31.3549C112.386 31.3549 113.706 31.5415 114.986 31.9149C116.292 32.2882 117.546 32.8615 118.746 33.6349L118.546 31.6349H121.026V40.9149H119.186ZM124.978 58.3149C125.778 58.3149 126.338 58.1282 126.658 57.7549C126.978 57.3815 127.165 56.8615 127.218 56.1949C127.298 55.5282 127.338 54.7549 127.338 53.8749V35.7949C127.338 35.3415 127.338 34.8882 127.338 34.4349C127.365 33.9549 127.405 33.4482 127.458 32.9149C127.005 32.9415 126.525 32.9682 126.018 32.9949C125.512 32.9949 125.058 33.0082 124.658 33.0349V30.9149C125.858 30.9149 126.805 30.8615 127.498 30.7549C128.218 30.6215 128.765 30.4749 129.138 30.3149C129.538 30.1549 129.832 29.9815 130.018 29.7949H131.538V55.0349C131.538 55.5149 131.525 56.0082 131.498 56.5149C131.472 56.9949 131.432 57.4882 131.378 57.9949C131.805 57.9682 132.232 57.9549 132.658 57.9549C133.112 57.9282 133.525 57.9015 133.898 57.8749V59.9949H124.978V58.3149ZM137.365 58.3149C138.165 58.3149 138.725 58.1282 139.045 57.7549C139.365 57.3815 139.551 56.8615 139.605 56.1949C139.685 55.5282 139.725 54.7549 139.725 53.8749V45.5949C139.725 45.1415 139.738 44.6882 139.765 44.2349C139.791 43.7549 139.831 43.2482 139.885 42.7149C139.431 42.7415 138.951 42.7682 138.445 42.7949C137.938 42.7949 137.471 42.8082 137.045 42.8349V40.7149C138.245 40.7149 139.191 40.6615 139.885 40.5549C140.605 40.4215 141.151 40.2749 141.525 40.1149C141.925 39.9549 142.218 39.7815 142.405 39.5949H143.925V55.0349C143.925 55.5149 143.911 56.0082 143.885 56.5149C143.858 56.9949 143.818 57.4882 143.765 57.9949C144.191 57.9682 144.618 57.9549 145.045 57.9549C145.498 57.9282 145.911 57.9015 146.285 57.8749V59.9949H137.365V58.3149ZM141.605 35.9149C140.911 35.9149 140.325 35.6615 139.845 35.1549C139.365 34.6215 139.125 33.9815 139.125 33.2349C139.125 32.4882 139.378 31.8615 139.885 31.3549C140.391 30.8215 140.965 30.5549 141.605 30.5549C142.298 30.5549 142.871 30.8215 143.325 31.3549C143.805 31.8615 144.045 32.4882 144.045 33.2349C144.045 33.9815 143.805 34.6215 143.325 35.1549C142.871 35.6615 142.298 35.9149 141.605 35.9149ZM149.7 59.9949V58.3149C150.5 58.3149 151.06 58.1282 151.38 57.7549C151.7 57.3815 151.887 56.8615 151.94 56.1949C152.02 55.5282 152.06 54.7549 152.06 53.8749L152.1 45.5549C152.1 45.1282 152.1 44.6749 152.1 44.1949C152.127 43.6882 152.18 43.1949 152.26 42.7149C151.78 42.7415 151.287 42.7682 150.78 42.7949C150.3 42.7949 149.847 42.8082 149.42 42.8349V40.7149C150.62 40.7149 151.554 40.6615 152.22 40.5549C152.914 40.4215 153.434 40.2749 153.78 40.1149C154.154 39.9549 154.434 39.7815 154.62 39.5949H156.06C156.087 39.8349 156.1 40.0615 156.1 40.2749C156.127 40.4882 156.14 40.7149 156.14 40.9549C156.167 41.1949 156.194 41.5015 156.22 41.8749C156.807 41.3949 157.447 40.9682 158.14 40.5949C158.834 40.2215 159.554 39.9282 160.3 39.7149C161.074 39.4749 161.807 39.3549 162.5 39.3549C164.874 39.3549 166.58 40.0749 167.62 41.5149C168.687 42.9549 169.22 45.2082 169.22 48.2749V55.0349C169.22 55.5149 169.207 56.0082 169.18 56.5149C169.154 56.9949 169.114 57.4882 169.06 57.9949C169.487 57.9682 169.914 57.9549 170.34 57.9549C170.794 57.9282 171.207 57.9015 171.58 57.8749V59.9949H162.66V58.3149C163.46 58.3149 164.02 58.1282 164.34 57.7549C164.66 57.3815 164.847 56.8615 164.9 56.1949C164.98 55.5282 165.02 54.7549 165.02 53.8749V48.2749C164.994 46.1682 164.647 44.5815 163.98 43.5149C163.34 42.4482 162.3 41.9282 160.86 41.9549C160.007 41.9549 159.167 42.1682 158.34 42.5949C157.514 43.0215 156.82 43.5415 156.26 44.1549C156.26 44.4215 156.26 44.7149 156.26 45.0349C156.26 45.3282 156.26 45.6349 156.26 45.9549V55.0349C156.26 55.5149 156.247 56.0082 156.22 56.5149C156.194 56.9949 156.154 57.4882 156.1 57.9949C156.527 57.9682 156.954 57.9549 157.38 57.9549C157.834 57.9282 158.247 57.9015 158.62 57.8749V59.9949H149.7ZM174.888 58.3149C175.688 58.3149 176.248 58.1282 176.568 57.7549C176.888 57.3815 177.075 56.8615 177.128 56.1949C177.208 55.5282 177.248 54.7549 177.248 53.8749V45.5949C177.248 45.1415 177.261 44.6882 177.288 44.2349C177.315 43.7549 177.355 43.2482 177.408 42.7149C176.955 42.7415 176.475 42.7682 175.968 42.7949C175.461 42.7949 174.995 42.8082 174.568 42.8349V40.7149C175.768 40.7149 176.715 40.6615 177.408 40.5549C178.128 40.4215 178.675 40.2749 179.048 40.1149C179.448 39.9549 179.741 39.7815 179.928 39.5949H181.448V55.0349C181.448 55.5149 181.435 56.0082 181.408 56.5149C181.381 56.9949 181.341 57.4882 181.288 57.9949C181.715 57.9682 182.141 57.9549 182.568 57.9549C183.021 57.9282 183.435 57.9015 183.808 57.8749V59.9949H174.888V58.3149ZM179.128 35.9149C178.435 35.9149 177.848 35.6615 177.368 35.1549C176.888 34.6215 176.648 33.9815 176.648 33.2349C176.648 32.4882 176.901 31.8615 177.408 31.3549C177.915 30.8215 178.488 30.5549 179.128 30.5549C179.821 30.5549 180.395 30.8215 180.848 31.3549C181.328 31.8615 181.568 32.4882 181.568 33.2349C181.568 33.9815 181.328 34.6215 180.848 35.1549C180.395 35.6615 179.821 35.9149 179.128 35.9149ZM196.864 60.6349C195.077 60.6349 193.437 60.2349 191.944 59.4349C190.451 58.6082 189.251 57.4349 188.344 55.9149C187.464 54.3949 187.024 52.5549 187.024 50.3949C187.024 48.9549 187.277 47.5815 187.784 46.2749C188.291 44.9415 188.997 43.7549 189.904 42.7149C190.837 41.6749 191.931 40.8615 193.184 40.2749C194.464 39.6615 195.877 39.3549 197.424 39.3549C198.997 39.3549 200.344 39.5949 201.464 40.0749C202.584 40.5549 203.437 41.1815 204.024 41.9549C204.637 42.7282 204.944 43.5682 204.944 44.4749C204.944 45.1149 204.757 45.6749 204.384 46.1549C204.011 46.6349 203.477 46.8749 202.784 46.8749C202.011 46.9015 201.464 46.6749 201.144 46.1949C200.824 45.6882 200.664 45.2215 200.664 44.7949C200.664 44.5549 200.704 44.2882 200.784 43.9949C200.864 43.6749 201.011 43.3949 201.224 43.1549C201.011 42.5949 200.664 42.1815 200.184 41.9149C199.704 41.6482 199.211 41.4749 198.704 41.3949C198.197 41.3149 197.771 41.2749 197.424 41.2749C195.797 41.3015 194.424 42.0082 193.304 43.3949C192.211 44.7549 191.664 46.7282 191.664 49.3149C191.664 50.9682 191.904 52.4482 192.384 53.7549C192.891 55.0615 193.624 56.1015 194.584 56.8749C195.544 57.6482 196.691 58.0482 198.024 58.0749C199.224 58.0749 200.384 57.7682 201.504 57.1549C202.624 56.5149 203.531 55.7149 204.224 54.7549L205.504 55.8749C204.731 57.0749 203.837 58.0215 202.824 58.7149C201.837 59.4082 200.824 59.9015 199.784 60.1949C198.771 60.4882 197.797 60.6349 196.864 60.6349ZM208.818 58.3149C209.618 58.3149 210.178 58.1282 210.498 57.7549C210.818 57.3815 211.004 56.8615 211.058 56.1949C211.138 55.5282 211.178 54.7549 211.178 53.8749V45.5949C211.178 45.1415 211.191 44.6882 211.218 44.2349C211.244 43.7549 211.284 43.2482 211.338 42.7149C210.884 42.7415 210.404 42.7682 209.898 42.7949C209.391 42.7949 208.924 42.8082 208.498 42.8349V40.7149C209.698 40.7149 210.644 40.6615 211.338 40.5549C212.058 40.4215 212.604 40.2749 212.978 40.1149C213.378 39.9549 213.671 39.7815 213.858 39.5949H215.378V55.0349C215.378 55.5149 215.364 56.0082 215.338 56.5149C215.311 56.9949 215.271 57.4882 215.218 57.9949C215.644 57.9682 216.071 57.9549 216.498 57.9549C216.951 57.9282 217.364 57.9015 217.738 57.8749V59.9949H208.818V58.3149ZM213.058 35.9149C212.364 35.9149 211.778 35.6615 211.298 35.1549C210.818 34.6215 210.578 33.9815 210.578 33.2349C210.578 32.4882 210.831 31.8615 211.338 31.3549C211.844 30.8215 212.418 30.5549 213.058 30.5549C213.751 30.5549 214.324 30.8215 214.778 31.3549C215.258 31.8615 215.498 32.4882 215.498 33.2349C215.498 33.9815 215.258 34.6215 214.778 35.1549C214.324 35.6615 213.751 35.9149 213.058 35.9149ZM232.954 59.9949C232.9 59.5682 232.86 59.1949 232.834 58.8749C232.807 58.5549 232.767 58.2215 232.714 57.8749C231.807 58.7815 230.834 59.4749 229.794 59.9549C228.754 60.4082 227.674 60.6349 226.554 60.6349C224.634 60.6349 223.18 60.1682 222.194 59.2349C221.234 58.2749 220.754 57.0882 220.754 55.6749C220.754 54.4482 221.114 53.3815 221.834 52.4749C222.554 51.5682 223.5 50.8349 224.674 50.2749C225.847 49.6882 227.127 49.2615 228.514 48.9949C229.9 48.7015 231.26 48.5549 232.594 48.5549V46.1949C232.594 45.3415 232.514 44.5549 232.354 43.8349C232.194 43.0882 231.86 42.4882 231.354 42.0349C230.874 41.5549 230.114 41.3149 229.074 41.3149C228.38 41.2882 227.687 41.4215 226.994 41.7149C226.3 41.9815 225.767 42.4349 225.394 43.0749C225.607 43.2882 225.74 43.5415 225.794 43.8349C225.874 44.1015 225.914 44.3549 225.914 44.5949C225.914 44.9682 225.754 45.3949 225.434 45.8749C225.114 46.3282 224.567 46.5415 223.794 46.5149C223.154 46.5149 222.66 46.3015 222.314 45.8749C221.994 45.4215 221.834 44.9015 221.834 44.3149C221.834 43.3549 222.18 42.5015 222.874 41.7549C223.594 41.0082 224.567 40.4215 225.794 39.9949C227.02 39.5682 228.394 39.3549 229.914 39.3549C232.207 39.3549 233.914 39.9549 235.034 41.1549C236.18 42.3549 236.754 44.2482 236.754 46.8349C236.754 47.7949 236.754 48.7149 236.754 49.5949C236.754 50.4749 236.74 51.3549 236.714 52.2349C236.714 53.1149 236.714 54.0482 236.714 55.0349C236.714 55.4349 236.7 55.8882 236.674 56.3949C236.647 56.9015 236.607 57.4349 236.554 57.9949C237.007 57.9682 237.474 57.9415 237.954 57.9149C238.434 57.8882 238.887 57.8749 239.314 57.8749V59.9949H232.954ZM232.594 50.3949C231.74 50.4482 230.86 50.5682 229.954 50.7549C229.074 50.9415 228.274 51.2215 227.554 51.5949C226.834 51.9682 226.247 52.4482 225.794 53.0349C225.367 53.6215 225.154 54.3282 225.154 55.1549C225.207 56.0615 225.5 56.7282 226.034 57.1549C226.594 57.5815 227.247 57.7949 227.994 57.7949C228.927 57.7949 229.754 57.6215 230.474 57.2749C231.194 56.9015 231.9 56.3949 232.594 55.7549C232.567 55.4615 232.554 55.1682 232.554 54.8749C232.554 54.5549 232.554 54.2215 232.554 53.8749C232.554 53.6349 232.554 53.1949 232.554 52.5549C232.58 51.8882 232.594 51.1682 232.594 50.3949ZM242.396 59.9949V58.3149C243.196 58.3149 243.756 58.1282 244.076 57.7549C244.396 57.3815 244.582 56.8615 244.636 56.1949C244.716 55.5282 244.756 54.7549 244.756 53.8749L244.796 45.5549C244.796 45.1282 244.796 44.6749 244.796 44.1949C244.822 43.6882 244.876 43.1949 244.956 42.7149C244.476 42.7415 243.982 42.7682 243.476 42.7949C242.996 42.7949 242.542 42.8082 242.116 42.8349V40.7149C243.316 40.7149 244.249 40.6615 244.916 40.5549C245.609 40.4215 246.129 40.2749 246.476 40.1149C246.849 39.9549 247.129 39.7815 247.316 39.5949H248.756C248.782 39.8349 248.796 40.0615 248.796 40.2749C248.822 40.4882 248.836 40.7149 248.836 40.9549C248.862 41.1949 248.889 41.5015 248.916 41.8749C249.502 41.3949 250.142 40.9682 250.836 40.5949C251.529 40.2215 252.249 39.9282 252.996 39.7149C253.769 39.4749 254.502 39.3549 255.196 39.3549C257.569 39.3549 259.276 40.0749 260.316 41.5149C261.382 42.9549 261.916 45.2082 261.916 48.2749V55.0349C261.916 55.5149 261.902 56.0082 261.876 56.5149C261.849 56.9949 261.809 57.4882 261.756 57.9949C262.182 57.9682 262.609 57.9549 263.036 57.9549C263.489 57.9282 263.902 57.9015 264.276 57.8749V59.9949H255.356V58.3149C256.156 58.3149 256.716 58.1282 257.036 57.7549C257.356 57.3815 257.542 56.8615 257.596 56.1949C257.676 55.5282 257.716 54.7549 257.716 53.8749V48.2749C257.689 46.1682 257.342 44.5815 256.676 43.5149C256.036 42.4482 254.996 41.9282 253.556 41.9549C252.702 41.9549 251.862 42.1682 251.036 42.5949C250.209 43.0215 249.516 43.5415 248.956 44.1549C248.956 44.4215 248.956 44.7149 248.956 45.0349C248.956 45.3282 248.956 45.6349 248.956 45.9549V55.0349C248.956 55.5149 248.942 56.0082 248.916 56.5149C248.889 56.9949 248.849 57.4882 248.796 57.9949C249.222 57.9682 249.649 57.9549 250.076 57.9549C250.529 57.9282 250.942 57.9015 251.316 57.8749V59.9949H242.396ZM276.103 60.6349C274.85 60.6349 273.69 60.4615 272.623 60.1149C271.557 59.7949 270.703 59.4082 270.063 58.9549L270.183 60.2749H268.063L267.863 53.3949H269.543C269.597 54.3815 269.903 55.2749 270.463 56.0749C271.023 56.8749 271.743 57.5015 272.623 57.9549C273.53 58.4082 274.503 58.6349 275.543 58.6349C276.157 58.6349 276.757 58.5415 277.343 58.3549C277.93 58.1415 278.423 57.8349 278.823 57.4349C279.223 57.0082 279.423 56.4882 279.423 55.8749C279.423 55.2082 279.21 54.6615 278.783 54.2349C278.383 53.7815 277.823 53.3815 277.103 53.0349C276.41 52.6882 275.61 52.3415 274.703 51.9949C273.903 51.6749 273.09 51.3415 272.263 50.9949C271.463 50.6482 270.717 50.2349 270.023 49.7549C269.33 49.2749 268.783 48.6882 268.383 47.9949C267.983 47.2749 267.783 46.3949 267.783 45.3549C267.783 44.7415 267.903 44.0882 268.143 43.3949C268.383 42.6749 268.77 42.0215 269.303 41.4349C269.837 40.8215 270.557 40.3282 271.463 39.9549C272.37 39.5549 273.49 39.3549 274.823 39.3549C275.543 39.3549 276.343 39.4749 277.223 39.7149C278.13 39.9549 278.97 40.3682 279.743 40.9549L279.703 39.5549H281.823V46.5949H280.103C280.023 45.6615 279.77 44.7949 279.343 43.9949C278.943 43.1949 278.37 42.5415 277.623 42.0349C276.877 41.5282 275.97 41.2749 274.903 41.2749C273.863 41.2749 273.01 41.5415 272.343 42.0749C271.703 42.5815 271.383 43.2215 271.383 43.9949C271.383 44.7682 271.623 45.3949 272.103 45.8749C272.61 46.3549 273.263 46.7682 274.063 47.1149C274.863 47.4615 275.73 47.8082 276.663 48.1549C277.783 48.6082 278.837 49.1015 279.823 49.6349C280.81 50.1682 281.61 50.8349 282.223 51.6349C282.837 52.4349 283.143 53.4482 283.143 54.6749C283.143 56.0082 282.797 57.1282 282.103 58.0349C281.437 58.9149 280.57 59.5682 279.503 59.9949C278.437 60.4215 277.303 60.6349 276.103 60.6349ZM288.432 41.3949L287.192 40.4749C287.486 40.1015 287.792 39.5682 288.112 38.8749C288.459 38.1815 288.739 37.4215 288.952 36.5949C289.192 35.7415 289.272 34.9149 289.192 34.1149C289.006 34.1949 288.832 34.2482 288.672 34.2749C288.539 34.3015 288.392 34.3149 288.232 34.3149C287.672 34.3149 287.179 34.1282 286.752 33.7549C286.326 33.3549 286.112 32.8215 286.112 32.1549C286.112 31.3815 286.339 30.7682 286.792 30.3149C287.272 29.8349 287.846 29.5949 288.512 29.5949C289.552 29.5949 290.326 29.9682 290.832 30.7149C291.366 31.4349 291.632 32.3415 291.632 33.4349C291.632 34.1549 291.499 34.9949 291.232 35.9549C290.992 36.9149 290.632 37.8749 290.152 38.8349C289.672 39.7682 289.099 40.6215 288.432 41.3949ZM151.666 88.9149C151.373 86.5149 150.546 84.6749 149.186 83.3949C147.826 82.0882 146.053 81.4215 143.866 81.3949C142.48 81.3949 141.2 81.7015 140.026 82.3149C138.853 82.9282 137.84 83.7949 136.986 84.9149C136.133 86.0082 135.466 87.3149 134.986 88.8349C134.533 90.3282 134.306 91.9682 134.306 93.7549C134.306 96.1815 134.733 98.3415 135.586 100.235C136.44 102.102 137.613 103.555 139.106 104.595C140.626 105.635 142.346 106.155 144.266 106.155C145.973 106.155 147.653 105.755 149.306 104.955C150.986 104.128 152.373 102.968 153.466 101.475L154.786 102.595C153.586 104.248 152.306 105.515 150.946 106.395C149.586 107.275 148.226 107.862 146.866 108.155C145.533 108.475 144.32 108.635 143.226 108.635C141.226 108.635 139.386 108.275 137.706 107.555C136.026 106.835 134.573 105.835 133.346 104.555C132.146 103.248 131.213 101.742 130.546 100.035C129.906 98.3015 129.586 96.4349 129.586 94.4349C129.586 92.5682 129.88 90.7415 130.466 88.9549C131.053 87.1682 131.92 85.5549 133.066 84.1149C134.213 82.6482 135.653 81.4882 137.386 80.6349C139.146 79.7815 141.186 79.3549 143.506 79.3549C144.866 79.3549 146.186 79.5415 147.466 79.9149C148.773 80.2882 150.026 80.8615 151.226 81.6349L151.026 79.6349H153.506V88.9149H151.666ZM170.459 106.315C171.259 106.315 171.819 106.128 172.139 105.755C172.485 105.382 172.685 104.862 172.739 104.195C172.819 103.528 172.859 102.755 172.859 101.875L172.819 96.2749C172.819 94.1682 172.485 92.5949 171.819 91.5549C171.179 90.4882 170.139 89.9682 168.699 89.9949C167.819 90.0215 166.952 90.2349 166.099 90.6349C165.272 91.0349 164.579 91.5415 164.019 92.1549V103.035C164.019 103.515 164.005 104.008 163.979 104.515C163.952 104.995 163.912 105.488 163.859 105.995C164.285 105.968 164.712 105.955 165.139 105.955C165.592 105.928 166.005 105.902 166.379 105.875V107.995H157.459V106.315C158.259 106.315 158.819 106.128 159.139 105.755C159.459 105.382 159.659 104.862 159.739 104.195C159.819 103.528 159.859 102.755 159.859 101.875V83.7949C159.859 83.3415 159.859 82.8882 159.859 82.4349C159.885 81.9549 159.925 81.4482 159.979 80.9149C159.525 80.9415 159.045 80.9682 158.539 80.9949C158.032 80.9949 157.565 81.0082 157.139 81.0349V78.9149C158.339 78.9149 159.299 78.8615 160.019 78.7549C160.739 78.6215 161.285 78.4749 161.659 78.3149C162.059 78.1549 162.352 77.9815 162.539 77.7949H164.019V89.8749C164.605 89.3949 165.259 88.9682 165.979 88.5949C166.699 88.2215 167.432 87.9282 168.179 87.7149C168.952 87.4749 169.672 87.3549 170.339 87.3549C172.712 87.3549 174.405 88.0749 175.419 89.5149C176.459 90.9549 176.992 93.2082 177.019 96.2749V103.035C177.019 103.515 177.005 104.008 176.979 104.515C176.979 104.995 176.939 105.488 176.859 105.995C177.285 105.968 177.725 105.955 178.179 105.955C178.632 105.928 179.045 105.902 179.419 105.875V107.995H170.459V106.315ZM192.577 108.635C190.683 108.635 188.977 108.208 187.457 107.355C185.937 106.502 184.723 105.315 183.817 103.795C182.937 102.248 182.497 100.475 182.497 98.4749C182.497 96.3149 182.937 94.4082 183.817 92.7549C184.723 91.0749 185.937 89.7549 187.457 88.7949C188.977 87.8349 190.67 87.3549 192.537 87.3549C194.43 87.3549 196.137 87.7949 197.657 88.6749C199.177 89.5282 200.377 90.7282 201.257 92.2749C202.163 93.7949 202.617 95.5549 202.617 97.5549C202.617 99.6615 202.177 101.555 201.297 103.235C200.417 104.915 199.217 106.235 197.697 107.195C196.203 108.155 194.497 108.635 192.577 108.635ZM192.857 106.635C194.137 106.608 195.137 106.208 195.857 105.435C196.603 104.662 197.137 103.675 197.457 102.475C197.777 101.248 197.937 99.9815 197.937 98.6749C197.937 97.5282 197.83 96.4082 197.617 95.3149C197.43 94.1949 197.123 93.1815 196.697 92.2749C196.27 91.3682 195.71 90.6482 195.017 90.1149C194.323 89.5549 193.483 89.2882 192.497 89.3149C191.243 89.3149 190.217 89.7015 189.417 90.4749C188.643 91.2482 188.07 92.2482 187.697 93.4749C187.35 94.6749 187.177 95.9549 187.177 97.3149C187.177 98.8882 187.377 100.382 187.777 101.795C188.177 103.208 188.79 104.368 189.617 105.275C190.47 106.182 191.55 106.635 192.857 106.635ZM206.361 106.315C207.161 106.315 207.721 106.128 208.041 105.755C208.361 105.382 208.547 104.862 208.601 104.195C208.681 103.528 208.721 102.755 208.721 101.875V93.5949C208.721 93.1415 208.734 92.6882 208.761 92.2349C208.787 91.7549 208.827 91.2482 208.881 90.7149C208.427 90.7415 207.947 90.7682 207.441 90.7949C206.934 90.7949 206.467 90.8082 206.041 90.8349V88.7149C207.241 88.7149 208.187 88.6615 208.881 88.5549C209.601 88.4215 210.147 88.2749 210.521 88.1149C210.921 87.9549 211.214 87.7815 211.401 87.5949H212.921V103.035C212.921 103.515 212.907 104.008 212.881 104.515C212.854 104.995 212.814 105.488 212.761 105.995C213.187 105.968 213.614 105.955 214.041 105.955C214.494 105.928 214.907 105.902 215.281 105.875V107.995H206.361V106.315ZM210.601 83.9149C209.907 83.9149 209.321 83.6615 208.841 83.1549C208.361 82.6215 208.121 81.9815 208.121 81.2349C208.121 80.4882 208.374 79.8615 208.881 79.3549C209.387 78.8215 209.961 78.5549 210.601 78.5549C211.294 78.5549 211.867 78.8215 212.321 79.3549C212.801 79.8615 213.041 80.4882 213.041 81.2349C213.041 81.9815 212.801 82.6215 212.321 83.1549C211.867 83.6615 211.294 83.9149 210.601 83.9149ZM228.337 108.635C226.55 108.635 224.91 108.235 223.417 107.435C221.923 106.608 220.723 105.435 219.817 103.915C218.937 102.395 218.497 100.555 218.497 98.3949C218.497 96.9549 218.75 95.5815 219.257 94.2749C219.763 92.9415 220.47 91.7549 221.377 90.7149C222.31 89.6749 223.403 88.8615 224.657 88.2749C225.937 87.6615 227.35 87.3549 228.897 87.3549C230.47 87.3549 231.817 87.5949 232.937 88.0749C234.057 88.5549 234.91 89.1815 235.497 89.9549C236.11 90.7282 236.417 91.5682 236.417 92.4749C236.417 93.1149 236.23 93.6749 235.857 94.1549C235.483 94.6349 234.95 94.8749 234.257 94.8749C233.483 94.9015 232.937 94.6749 232.617 94.1949C232.297 93.6882 232.137 93.2215 232.137 92.7949C232.137 92.5549 232.177 92.2882 232.257 91.9949C232.337 91.6749 232.483 91.3949 232.697 91.1549C232.483 90.5949 232.137 90.1815 231.657 89.9149C231.177 89.6482 230.683 89.4749 230.177 89.3949C229.67 89.3149 229.243 89.2749 228.897 89.2749C227.27 89.3015 225.897 90.0082 224.777 91.3949C223.683 92.7549 223.137 94.7282 223.137 97.3149C223.137 98.9682 223.377 100.448 223.857 101.755C224.363 103.062 225.097 104.102 226.057 104.875C227.017 105.648 228.163 106.048 229.497 106.075C230.697 106.075 231.857 105.768 232.977 105.155C234.097 104.515 235.003 103.715 235.697 102.755L236.977 103.875C236.203 105.075 235.31 106.022 234.297 106.715C233.31 107.408 232.297 107.902 231.257 108.195C230.243 108.488 229.27 108.635 228.337 108.635ZM249.773 108.635C247.906 108.635 246.226 108.208 244.733 107.355C243.266 106.475 242.106 105.248 241.253 103.675C240.4 102.075 239.973 100.195 239.973 98.0349C239.973 96.1682 240.386 94.4215 241.213 92.7949C242.066 91.1682 243.253 89.8615 244.773 88.8749C246.293 87.8615 248.053 87.3549 250.053 87.3549C251.173 87.3549 252.226 87.5282 253.213 87.8749C254.226 88.2215 255.12 88.7682 255.893 89.5149C256.693 90.2349 257.32 91.1815 257.773 92.3549C258.226 93.5015 258.453 94.9015 258.453 96.5549L244.693 96.7949C244.693 98.6082 244.893 100.222 245.293 101.635C245.72 103.048 246.4 104.142 247.333 104.915C248.266 105.688 249.48 106.075 250.973 106.075C251.693 106.075 252.453 105.955 253.253 105.715C254.08 105.448 254.853 105.075 255.573 104.595C256.32 104.115 256.946 103.542 257.453 102.875L258.693 103.955C257.893 105.155 256.973 106.102 255.933 106.795C254.893 107.462 253.826 107.928 252.733 108.195C251.666 108.488 250.68 108.635 249.773 108.635ZM244.853 94.7149H254.093C254.093 93.7015 253.946 92.7949 253.653 91.9949C253.386 91.1682 252.96 90.5149 252.373 90.0349C251.786 89.5549 251.04 89.3149 250.133 89.3149C248.72 89.3149 247.56 89.7682 246.653 90.6749C245.746 91.5549 245.146 92.9015 244.853 94.7149Z" fill="#FAFAFA"/>
<path d="M333.96 54.3284C332.973 60.8781 326.2 65.2776 326.2 65.2776C326.2 65.2776 321.024 59.058 322.007 52.5072C322.996 45.9498 329.772 41.5553 329.772 41.5553C329.772 41.5553 334.943 47.7776 333.96 54.3284ZM333.911 77.2799C329.563 82.2873 321.457 82.418 321.457 82.418C321.457 82.418 320.4 74.4292 324.748 69.4219C329.097 64.4146 337.208 64.2811 337.208 64.2811C337.208 64.2811 338.264 72.2737 333.911 77.2799ZM324.913 96.6917C318.683 99.0373 311.469 95.3291 311.469 95.3291C311.469 95.3291 314.36 87.815 320.59 85.4694C326.82 83.1238 334.035 86.8319 334.035 86.8319C334.035 86.8319 331.144 94.3461 324.913 96.6917ZM306.219 109.216C299.63 110.231 293.335 105.126 293.335 105.126C293.335 105.126 297.727 98.3753 304.318 97.3564C310.907 96.3413 317.197 101.449 317.197 101.449C317.197 101.449 312.808 108.201 306.219 109.216ZM320.436 35.2914C323.866 40.9895 321.471 48.6708 321.471 48.6708C321.471 48.6708 313.504 47.1188 310.075 41.4207C306.645 35.7227 309.041 28.0375 309.041 28.0375C309.041 28.0375 317.007 29.5933 320.436 35.2914Z" fill="#FAFAFA"/>
<path d="M70.2578 150.468L68.8515 136.19H71.1074L71.83 145.126C71.8626 145.438 71.8854 145.771 71.8984 146.122C71.9179 146.467 71.9277 146.809 71.9277 147.147C71.9342 147.479 71.9277 147.785 71.9081 148.065H71.9765C72.0872 147.766 72.2076 147.46 72.3378 147.147C72.468 146.828 72.6113 146.5 72.7675 146.161C72.9238 145.823 73.0898 145.478 73.2656 145.126L77.7675 136.19H80.2187L72.7578 150.468H70.2578ZM83.4511 150.663C82.6243 150.663 81.9016 150.507 81.2831 150.194C80.6712 149.875 80.1959 149.41 79.8574 148.798C79.5253 148.179 79.3593 147.424 79.3593 146.532C79.3593 145.647 79.4863 144.784 79.7402 143.944C79.9941 143.098 80.3684 142.336 80.8632 141.659C81.358 140.982 81.9602 140.445 82.6699 140.048C83.3795 139.651 84.1868 139.452 85.0917 139.452C86.1985 139.452 87.0286 139.703 87.582 140.204C88.1419 140.699 88.4218 141.356 88.4218 142.177C88.4218 142.737 88.2949 143.248 88.041 143.71C87.787 144.172 87.3997 144.573 86.8788 144.911C86.3645 145.243 85.7102 145.5 84.916 145.683C84.1282 145.865 83.2005 145.956 82.1328 145.956H81.6933C81.6868 146.054 81.6803 146.155 81.6738 146.259C81.6673 146.356 81.664 146.454 81.664 146.552C81.664 147.274 81.8528 147.844 82.2304 148.261C82.608 148.671 83.1581 148.876 83.8808 148.876C84.4277 148.876 84.9322 148.808 85.3945 148.671C85.8567 148.534 86.3743 148.329 86.9472 148.056V149.862C86.4199 150.116 85.886 150.315 85.3456 150.458C84.8053 150.595 84.1738 150.663 83.4511 150.663ZM81.9765 144.296H82.3085C83.1028 144.296 83.7929 144.221 84.3788 144.071C84.9648 143.915 85.4173 143.687 85.7363 143.388C86.0553 143.082 86.2148 142.711 86.2148 142.274C86.2148 141.936 86.1074 141.672 85.8925 141.483C85.6842 141.288 85.3717 141.19 84.955 141.19C84.5449 141.19 84.1412 141.317 83.7441 141.571C83.3469 141.819 82.9921 142.177 82.6796 142.646C82.3671 143.108 82.1328 143.658 81.9765 144.296ZM89.457 150.468L91.7519 139.657H93.539L93.3046 141.698H93.412C93.692 141.282 93.9947 140.904 94.3203 140.565C94.6523 140.227 95.0201 139.957 95.4238 139.755C95.8274 139.553 96.2766 139.452 96.7714 139.452C96.9472 139.452 97.1295 139.465 97.3183 139.491C97.5136 139.511 97.6829 139.54 97.8261 139.579L97.3281 141.728C97.1848 141.688 97.0286 141.656 96.8593 141.63C96.69 141.604 96.511 141.591 96.3222 141.591C95.8925 141.591 95.4889 141.692 95.1113 141.894C94.7337 142.095 94.3919 142.375 94.0859 142.733C93.7799 143.091 93.5162 143.511 93.2949 143.993C93.0735 144.468 92.901 144.986 92.7773 145.546L91.7421 150.468H89.457ZM97.621 150.468L99.916 139.657H102.201L99.9062 150.468H97.621ZM101.566 138.036C101.228 138.036 100.945 137.955 100.717 137.792C100.489 137.623 100.375 137.359 100.375 137.001C100.375 136.701 100.43 136.441 100.541 136.22C100.658 135.998 100.824 135.829 101.039 135.712C101.26 135.588 101.524 135.526 101.83 135.526C102.169 135.526 102.445 135.608 102.66 135.771C102.875 135.927 102.982 136.181 102.982 136.532C102.982 136.988 102.855 137.353 102.602 137.626C102.348 137.899 102.003 138.036 101.566 138.036ZM101.937 155.272C101.657 155.272 101.387 155.25 101.127 155.204C100.86 155.159 100.635 155.106 100.453 155.048V153.173C100.648 153.244 100.837 153.297 101.019 153.329C101.195 153.368 101.381 153.388 101.576 153.388C102.019 153.388 102.38 153.225 102.66 152.899C102.947 152.58 103.161 152.092 103.305 151.435L105.424 141.396H103.695L103.91 140.341L105.795 139.628L106 138.7C106.143 138.036 106.325 137.479 106.547 137.03C106.775 136.575 107.042 136.21 107.348 135.937C107.66 135.663 108.018 135.468 108.422 135.351C108.832 135.227 109.294 135.165 109.809 135.165C110.199 135.165 110.574 135.204 110.932 135.282C111.296 135.36 111.612 135.461 111.879 135.585L111.273 137.304C111.085 137.226 110.883 137.157 110.668 137.099C110.453 137.04 110.215 137.011 109.955 137.011C109.493 137.011 109.125 137.154 108.852 137.44C108.578 137.727 108.376 138.186 108.246 138.817L108.07 139.657H110.287L109.935 141.396H107.699L105.512 151.747C105.362 152.437 105.144 153.046 104.857 153.573C104.577 154.107 104.2 154.524 103.725 154.823C103.249 155.123 102.654 155.272 101.937 155.272ZM109.975 150.468L112.269 139.657H114.555L112.26 150.468H109.975ZM113.92 138.036C113.581 138.036 113.298 137.955 113.07 137.792C112.842 137.623 112.728 137.359 112.728 137.001C112.728 136.701 112.784 136.441 112.894 136.22C113.012 135.998 113.178 135.829 113.393 135.712C113.614 135.588 113.878 135.526 114.184 135.526C114.522 135.526 114.799 135.608 115.014 135.771C115.228 135.927 115.336 136.181 115.336 136.532C115.336 136.988 115.209 137.353 114.955 137.626C114.701 137.899 114.356 138.036 113.92 138.036ZM120.033 150.663C119.206 150.663 118.484 150.507 117.865 150.194C117.253 149.875 116.778 149.41 116.439 148.798C116.107 148.179 115.941 147.424 115.941 146.532C115.941 145.647 116.068 144.784 116.322 143.944C116.576 143.098 116.95 142.336 117.445 141.659C117.94 140.982 118.542 140.445 119.252 140.048C119.962 139.651 120.769 139.452 121.674 139.452C122.781 139.452 123.611 139.703 124.164 140.204C124.724 140.699 125.004 141.356 125.004 142.177C125.004 142.737 124.877 143.248 124.623 143.71C124.369 144.172 123.982 144.573 123.461 144.911C122.947 145.243 122.292 145.5 121.498 145.683C120.71 145.865 119.782 145.956 118.715 145.956H118.275C118.269 146.054 118.262 146.155 118.256 146.259C118.249 146.356 118.246 146.454 118.246 146.552C118.246 147.274 118.435 147.844 118.812 148.261C119.19 148.671 119.74 148.876 120.463 148.876C121.01 148.876 121.514 148.808 121.977 148.671C122.439 148.534 122.956 148.329 123.529 148.056V149.862C123.002 150.116 122.468 150.315 121.928 150.458C121.387 150.595 120.756 150.663 120.033 150.663ZM118.559 144.296H118.891C119.685 144.296 120.375 144.221 120.961 144.071C121.547 143.915 121.999 143.687 122.318 143.388C122.637 143.082 122.797 142.711 122.797 142.274C122.797 141.936 122.689 141.672 122.475 141.483C122.266 141.288 121.954 141.19 121.537 141.19C121.127 141.19 120.723 141.317 120.326 141.571C119.929 141.819 119.574 142.177 119.262 142.646C118.949 143.108 118.715 143.658 118.559 144.296ZM129.496 150.663C128.936 150.663 128.428 150.53 127.973 150.263C127.523 149.996 127.165 149.582 126.898 149.022C126.631 148.456 126.498 147.73 126.498 146.845C126.498 146.103 126.573 145.377 126.723 144.667C126.879 143.951 127.103 143.28 127.396 142.655C127.689 142.024 128.047 141.47 128.471 140.995C128.894 140.513 129.372 140.139 129.906 139.872C130.447 139.599 131.032 139.462 131.664 139.462C132.133 139.462 132.533 139.543 132.865 139.706C133.197 139.869 133.477 140.084 133.705 140.351C133.933 140.618 134.125 140.907 134.281 141.22H134.369C134.389 141.05 134.411 140.836 134.437 140.575C134.47 140.308 134.509 140.022 134.555 139.716C134.6 139.403 134.656 139.101 134.721 138.808L135.473 135.272H137.748L134.525 150.468H132.738L132.953 148.72H132.885C132.598 149.084 132.286 149.413 131.947 149.706C131.615 149.999 131.247 150.233 130.844 150.409C130.44 150.578 129.991 150.663 129.496 150.663ZM130.385 148.798C130.691 148.798 130.984 148.72 131.264 148.563C131.55 148.407 131.814 148.192 132.055 147.919C132.302 147.639 132.527 147.32 132.728 146.962C132.93 146.597 133.103 146.21 133.246 145.8C133.389 145.39 133.5 144.973 133.578 144.55C133.656 144.127 133.695 143.716 133.695 143.319C133.695 142.714 133.549 142.232 133.256 141.874C132.969 141.509 132.54 141.327 131.967 141.327C131.596 141.327 131.251 141.431 130.932 141.64C130.613 141.848 130.323 142.131 130.062 142.489C129.802 142.847 129.577 143.261 129.389 143.729C129.206 144.192 129.066 144.687 128.969 145.214C128.871 145.741 128.822 146.269 128.822 146.796C128.822 147.453 128.952 147.951 129.213 148.29C129.48 148.629 129.87 148.798 130.385 148.798ZM148.119 150.663C147.644 150.663 147.227 150.585 146.869 150.429C146.511 150.272 146.212 150.061 145.971 149.794C145.73 149.527 145.534 149.231 145.385 148.905H145.297L144.691 150.468H142.953L146.176 135.272H148.451L147.758 138.515C147.686 138.866 147.602 139.237 147.504 139.628C147.406 140.019 147.309 140.377 147.211 140.702C147.12 141.028 147.045 141.269 146.986 141.425H147.064C147.338 141.08 147.628 140.757 147.934 140.458C148.24 140.159 148.581 139.918 148.959 139.735C149.343 139.553 149.776 139.462 150.258 139.462C150.818 139.462 151.325 139.599 151.781 139.872C152.237 140.139 152.598 140.552 152.865 141.112C153.139 141.672 153.275 142.392 153.275 143.271C153.275 144.013 153.197 144.742 153.041 145.458C152.891 146.174 152.67 146.845 152.377 147.47C152.084 148.095 151.729 148.648 151.312 149.13C150.896 149.605 150.417 149.979 149.877 150.253C149.343 150.526 148.757 150.663 148.119 150.663ZM147.816 148.798C148.187 148.798 148.532 148.697 148.852 148.495C149.171 148.287 149.46 148.004 149.721 147.646C149.981 147.287 150.202 146.874 150.385 146.405C150.567 145.937 150.707 145.442 150.805 144.921C150.902 144.394 150.951 143.863 150.951 143.329C150.951 142.665 150.821 142.167 150.56 141.835C150.307 141.496 149.922 141.327 149.408 141.327C149.096 141.327 148.793 141.409 148.5 141.571C148.213 141.728 147.947 141.946 147.699 142.226C147.452 142.499 147.227 142.818 147.025 143.183C146.83 143.541 146.661 143.925 146.518 144.335C146.374 144.745 146.264 145.162 146.185 145.585C146.114 146.008 146.078 146.415 146.078 146.806C146.078 147.405 146.225 147.886 146.518 148.251C146.817 148.616 147.25 148.798 147.816 148.798ZM153.969 155.272C153.637 155.272 153.366 155.253 153.158 155.214C152.943 155.175 152.748 155.129 152.572 155.077V153.251C152.748 153.29 152.934 153.323 153.129 153.349C153.324 153.381 153.539 153.397 153.773 153.397C154.353 153.397 154.838 153.222 155.228 152.87C155.626 152.525 155.99 152.047 156.322 151.435L156.82 150.526L155.199 139.657H157.465L158.109 144.931C158.155 145.295 158.191 145.686 158.217 146.103C158.249 146.519 158.272 146.923 158.285 147.313C158.298 147.698 158.305 148.023 158.305 148.29H158.373C158.464 148.069 158.578 147.789 158.715 147.45C158.852 147.112 159.004 146.75 159.174 146.366C159.343 145.982 159.512 145.624 159.682 145.292L162.553 139.657H165.023L158.275 152.177C157.904 152.867 157.504 153.443 157.074 153.905C156.651 154.368 156.185 154.709 155.678 154.931C155.17 155.159 154.6 155.272 153.969 155.272Z" fill="white"/>
<g clip-path="url(#clip0_1_2279)">
<mask id="mask0_1_2279" style="mask-type:luminance" maskUnits="userSpaceOnUse" x="170" y="134" width="113" height="17">
<path d="M282.016 134.468H170.016V150.468H282.016V134.468Z" fill="white"/>
</mask>
<g mask="url(#mask0_1_2279)">
<path fill-rule="evenodd" clip-rule="evenodd" d="M177.688 136.832L178.067 134.754C177.665 134.563 177.144 134.468 176.552 134.468C174.586 134.468 172.881 135.686 172.478 137.978L172.194 139.626H170.371L170.016 141.608H171.839L170.347 150.229H172.668L174.16 141.608H176.457L176.812 139.626H174.515L174.776 138.169C174.965 137.071 175.652 136.545 176.67 136.545C177.025 136.545 177.428 136.641 177.688 136.832ZM257.511 149.707H259.376L263.564 139.564V147.819H261.816V150.24H267.937V147.819H266.28V136.904H267.937V134.503H262.802L258.421 145.256L253.896 134.503H248.896V136.904H250.553V147.819H248.896V150.24H255.017V147.819H253.228V143.929L253.179 139.575L257.511 149.707ZM268.911 147.818V150.24H275.209C276.584 150.24 277.796 149.905 278.826 149.219L278.827 149.219C279.857 148.531 280.645 147.565 281.194 146.4C281.745 145.232 282.016 143.931 282.016 142.504V142.218C282.016 140.75 281.735 139.429 281.161 138.265C280.588 137.103 279.785 136.181 278.751 135.511L278.749 135.509C277.695 134.834 276.476 134.503 275.108 134.503H268.911V136.904H270.568V147.818H268.911ZM278.691 145.227C278.356 146.029 277.883 146.656 277.274 147.122L277.27 147.124C276.685 147.582 275.972 147.818 275.108 147.818H273.376V136.904H275.108C275.968 136.904 276.685 137.132 277.278 137.573C277.885 138.024 278.361 138.64 278.702 139.434C279.037 140.245 279.208 141.164 279.208 142.197V142.504C279.208 143.508 279.034 144.414 278.691 145.226L278.691 145.227ZM242.608 139.626L242.893 147.148L246.492 139.626H248.908L243.579 150.229H241.211L240.88 142.85L237.469 150.229H235.101L234.32 139.626H236.57L237.043 147.148L240.548 139.626H242.608ZM230.236 144.068C230.236 146.551 228.956 148.414 227.133 148.414C225.736 148.414 224.954 147.339 224.954 145.787C224.954 143.304 226.233 141.441 228.057 141.441C229.454 141.441 230.236 142.516 230.236 144.068ZM222.586 145.787C222.586 148.533 224.22 150.468 227.109 150.468C230.117 150.468 232.603 147.745 232.603 144.068C232.603 141.322 230.97 139.387 228.081 139.387C225.073 139.387 222.586 142.11 222.586 145.787ZM222.469 139.578L222.042 142.038C221.735 141.799 221.214 141.68 220.717 141.68C219.745 141.68 218.751 142.229 218.301 143.375L217.117 150.229H214.749L216.596 139.626H218.964L218.774 140.725C219.296 139.936 220.338 139.387 221.356 139.387C221.877 139.387 222.327 139.483 222.469 139.578ZM209.3 141.608L208.235 147.363C208.187 147.626 208.164 147.865 208.164 148.08C208.164 149.68 209.253 150.468 210.887 150.468C211.621 150.468 212.284 150.324 212.734 150.086L213.113 147.913C212.734 148.151 212.142 148.342 211.668 148.342C211.005 148.342 210.626 148.08 210.626 147.459C210.626 147.278 210.643 147.165 210.663 147.033C210.666 147.009 210.67 146.984 210.674 146.957L211.668 141.608H213.989L214.344 139.626H212.024L212.545 136.784H210.177L209.656 139.626H207.95L207.595 141.608H209.3ZM195.798 150.229L197.645 139.626H200.013L199.823 140.677C200.439 139.984 201.505 139.387 202.878 139.387C204.891 139.387 205.981 140.725 205.981 142.516C205.981 142.778 205.957 143.041 205.91 143.327L204.726 150.229H202.357L203.47 143.733C203.518 143.471 203.542 143.28 203.542 143.089C203.542 142.157 203.044 141.56 201.884 141.56C200.865 141.56 199.823 142.277 199.374 143.28L198.166 150.229H195.798ZM192.332 144.068C192.332 146.551 191.053 148.414 189.23 148.414C187.832 148.414 187.051 147.339 187.051 145.787C187.051 143.304 188.33 141.441 190.153 141.441C191.55 141.441 192.332 142.516 192.332 144.068ZM184.683 145.787C184.683 148.533 186.317 150.468 189.206 150.468C192.213 150.468 194.7 147.745 194.7 144.068C194.7 141.322 193.066 139.387 190.177 139.387C187.169 139.387 184.683 142.11 184.683 145.787ZM184.565 139.578L184.139 142.038C183.831 141.799 183.31 141.68 182.813 141.68C181.842 141.68 180.847 142.229 180.397 143.375L179.213 150.229H176.845L178.692 139.626H181.06L180.871 140.725C181.392 139.936 182.434 139.387 183.452 139.387C183.973 139.387 184.423 139.483 184.565 139.578Z" fill="white"/>
</g>
</g>
<path d="M308.074 130.53C308.605 130.249 309.261 130.38 309.643 130.843L310.467 131.843C310.727 132.157 311.122 132.327 311.529 132.3L312.818 132.215C313.417 132.175 313.962 132.56 314.123 133.138L314.472 134.396C314.581 134.788 314.871 135.103 315.253 135.244L316.47 135.694C317.031 135.902 317.37 136.473 317.283 137.065L317.092 138.367C317.033 138.767 317.169 139.171 317.458 139.455L318.394 140.37C318.82 140.787 318.897 141.445 318.579 141.949L317.874 143.065C317.658 143.406 317.619 143.83 317.767 144.205L318.253 145.43C318.472 145.984 318.275 146.616 317.78 146.947L316.687 147.678C316.351 147.902 316.143 148.274 316.126 148.678L316.073 149.996C316.049 150.592 315.611 151.09 315.022 151.191L313.738 151.411C313.338 151.48 312.995 151.736 312.816 152.1L312.237 153.276C311.972 153.814 311.367 154.092 310.786 153.943L309.532 153.622C309.138 153.521 308.719 153.616 308.406 153.877L307.408 154.71C306.947 155.095 306.278 155.104 305.808 154.73L304.796 153.926C304.476 153.672 304.054 153.588 303.662 153.699L302.418 154.052C301.84 154.216 301.226 153.952 300.949 153.419L300.348 152.266C300.16 151.905 299.81 151.657 299.407 151.599L298.126 151.413C297.533 151.327 297.081 150.837 297.044 150.24L296.962 148.931C296.937 148.526 296.719 148.158 296.376 147.941L295.275 147.244C294.771 146.924 294.558 146.296 294.765 145.737L295.224 144.5C295.364 144.121 295.315 143.698 295.091 143.361L294.364 142.267C294.034 141.77 294.095 141.112 294.511 140.685L295.431 139.741C295.713 139.451 295.839 139.045 295.772 138.647L295.551 137.346C295.451 136.759 295.775 136.181 296.329 135.96L297.545 135.474C297.921 135.324 298.203 135.003 298.302 134.611L298.626 133.336C298.774 132.756 299.307 132.359 299.904 132.383L301.202 132.436C301.608 132.452 301.998 132.272 302.249 131.953L303.056 130.926C303.426 130.455 304.077 130.308 304.615 130.575L305.772 131.15C306.138 131.331 306.568 131.326 306.928 131.135L308.074 130.53Z" fill="#EAFD70"/>
<path d="M305.426 146.93C305.23 147.129 304.909 147.129 304.713 146.93L301.262 143.421C301.07 143.227 301.07 142.915 301.262 142.72L301.599 142.378C301.795 142.178 302.116 142.178 302.312 142.378L304.713 144.819C304.909 145.018 305.23 145.018 305.426 144.819L311.397 138.748C311.593 138.549 311.914 138.549 312.11 138.748L312.447 139.091C312.639 139.285 312.639 139.597 312.447 139.792L308.931 143.367L305.426 146.93Z" fill="#212121" stroke="#212121"/>
<path d="M386.141 36.8115C387.464 36.8115 388.656 37.0199 389.719 37.4365C390.781 37.8428 391.625 38.4521 392.25 39.2646C392.875 40.0771 393.188 41.0824 393.188 42.2803C393.188 43.2074 392.995 44.0146 392.609 44.7021C392.234 45.3896 391.724 45.9938 391.078 46.5146C390.432 47.0251 389.708 47.4782 388.906 47.874C389.802 48.3115 390.625 48.8167 391.375 49.3896C392.135 49.9521 392.745 50.6136 393.203 51.374C393.672 52.1344 393.906 53.0251 393.906 54.0459C393.906 55.3271 393.578 56.4365 392.922 57.374C392.276 58.3011 391.375 59.0199 390.219 59.5303C389.062 60.0303 387.714 60.2803 386.172 60.2803C384.516 60.2803 383.104 60.0355 381.938 59.5459C380.771 59.0563 379.885 58.3584 379.281 57.4521C378.677 56.5355 378.375 55.4417 378.375 54.1709C378.375 53.1188 378.583 52.2074 379 51.4365C379.417 50.6657 379.974 49.999 380.672 49.4365C381.38 48.874 382.156 48.4001 383 48.0146C382.281 47.5876 381.625 47.1084 381.031 46.5771C380.438 46.0355 379.964 45.4157 379.609 44.7178C379.266 44.0094 379.094 43.1917 379.094 42.2646C379.094 41.0771 379.411 40.0824 380.047 39.2803C380.682 38.4678 381.531 37.8532 382.594 37.4365C383.667 37.0199 384.849 36.8115 386.141 36.8115ZM381.875 54.0303C381.875 55.0303 382.229 55.8532 382.938 56.499C383.646 57.1449 384.703 57.4678 386.109 57.4678C387.505 57.4678 388.568 57.1501 389.297 56.5146C390.026 55.8792 390.391 55.0407 390.391 53.999C390.391 53.3324 390.203 52.7438 389.828 52.2334C389.464 51.723 388.969 51.2699 388.344 50.874C387.729 50.4678 387.047 50.0928 386.297 49.749L385.797 49.5459C384.984 49.8896 384.286 50.2803 383.703 50.7178C383.12 51.1449 382.667 51.6292 382.344 52.1709C382.031 52.7126 381.875 53.3324 381.875 54.0303ZM386.109 39.6396C385.099 39.6396 384.266 39.8896 383.609 40.3896C382.964 40.8792 382.641 41.5876 382.641 42.5146C382.641 43.1709 382.797 43.7334 383.109 44.2021C383.432 44.6709 383.865 45.0771 384.406 45.4209C384.948 45.7542 385.547 46.0667 386.203 46.3584C386.839 46.0771 387.411 45.7699 387.922 45.4365C388.443 45.0928 388.854 44.6865 389.156 44.2178C389.469 43.7386 389.625 43.1657 389.625 42.499C389.625 41.5824 389.297 40.8792 388.641 40.3896C387.995 39.8896 387.151 39.6396 386.109 39.6396ZM412.719 48.5303C412.719 50.374 412.573 52.0251 412.281 53.4834C412 54.9313 411.552 56.1605 410.938 57.1709C410.323 58.1813 409.521 58.9521 408.531 59.4834C407.542 60.0146 406.344 60.2803 404.938 60.2803C403.177 60.2803 401.724 59.8167 400.578 58.8896C399.432 57.9521 398.583 56.6084 398.031 54.8584C397.479 53.098 397.203 50.9886 397.203 48.5303C397.203 46.0719 397.453 43.9678 397.953 42.2178C398.464 40.4574 399.286 39.1084 400.422 38.1709C401.557 37.2334 403.062 36.7646 404.938 36.7646C406.708 36.7646 408.167 37.2334 409.312 38.1709C410.469 39.098 411.323 40.4417 411.875 42.2021C412.438 43.9521 412.719 46.0615 412.719 48.5303ZM400.906 48.5303C400.906 50.4574 401.031 52.0667 401.281 53.3584C401.542 54.6501 401.969 55.6188 402.562 56.2646C403.156 56.9001 403.948 57.2178 404.938 57.2178C405.927 57.2178 406.719 56.9001 407.312 56.2646C407.906 55.6292 408.333 54.6657 408.594 53.374C408.865 52.0824 409 50.4678 409 48.5303C409 46.6136 408.87 45.0094 408.609 43.7178C408.349 42.4261 407.922 41.4574 407.328 40.8115C406.734 40.1553 405.938 39.8271 404.938 39.8271C403.938 39.8271 403.141 40.1553 402.547 40.8115C401.964 41.4574 401.542 42.4261 401.281 43.7178C401.031 45.0094 400.906 46.6136 400.906 48.5303ZM431.531 48.5303C431.531 50.374 431.385 52.0251 431.094 53.4834C430.812 54.9313 430.365 56.1605 429.75 57.1709C429.135 58.1813 428.333 58.9521 427.344 59.4834C426.354 60.0146 425.156 60.2803 423.75 60.2803C421.99 60.2803 420.536 59.8167 419.391 58.8896C418.245 57.9521 417.396 56.6084 416.844 54.8584C416.292 53.098 416.016 50.9886 416.016 48.5303C416.016 46.0719 416.266 43.9678 416.766 42.2178C417.276 40.4574 418.099 39.1084 419.234 38.1709C420.37 37.2334 421.875 36.7646 423.75 36.7646C425.521 36.7646 426.979 37.2334 428.125 38.1709C429.281 39.098 430.135 40.4417 430.688 42.2021C431.25 43.9521 431.531 46.0615 431.531 48.5303ZM419.719 48.5303C419.719 50.4574 419.844 52.0667 420.094 53.3584C420.354 54.6501 420.781 55.6188 421.375 56.2646C421.969 56.9001 422.76 57.2178 423.75 57.2178C424.74 57.2178 425.531 56.9001 426.125 56.2646C426.719 55.6292 427.146 54.6657 427.406 53.374C427.677 52.0824 427.812 50.4678 427.812 48.5303C427.812 46.6136 427.682 45.0094 427.422 43.7178C427.161 42.4261 426.734 41.4574 426.141 40.8115C425.547 40.1553 424.75 39.8271 423.75 39.8271C422.75 39.8271 421.953 40.1553 421.359 40.8115C420.776 41.4574 420.354 42.4261 420.094 43.7178C419.844 45.0094 419.719 46.6136 419.719 48.5303ZM443.953 47.2959H450.203V50.0771H443.953V56.3896H441.172V50.0771H434.938V47.2959H441.172V40.9209H443.953V47.2959ZM470.656 60.2803C469.021 60.2803 467.604 59.9626 466.406 59.3271C465.208 58.6917 464.286 57.7178 463.641 56.4053C462.995 55.0928 462.672 53.4261 462.672 51.4053C462.672 49.3011 463.026 47.5824 463.734 46.249C464.443 44.9157 465.422 43.9313 466.672 43.2959C467.932 42.6605 469.375 42.3428 471 42.3428C472.031 42.3428 472.964 42.4469 473.797 42.6553C474.641 42.8532 475.354 43.098 475.938 43.3896L474.844 46.3271C474.208 46.0667 473.557 45.848 472.891 45.6709C472.224 45.4938 471.583 45.4053 470.969 45.4053C469.958 45.4053 469.115 45.6292 468.438 46.0771C467.771 46.5251 467.271 47.1917 466.938 48.0771C466.615 48.9626 466.453 50.0615 466.453 51.374C466.453 52.6449 466.62 53.7178 466.953 54.5928C467.286 55.4574 467.781 56.1136 468.438 56.5615C469.094 56.999 469.901 57.2178 470.859 57.2178C471.807 57.2178 472.656 57.1032 473.406 56.874C474.156 56.6449 474.865 56.348 475.531 55.9834V59.1709C474.875 59.5459 474.172 59.8219 473.422 59.999C472.672 60.1865 471.75 60.2803 470.656 60.2803ZM483.781 59.9678H480.094V35.6553H483.781V59.9678ZM493.203 42.6709V59.9678H489.531V42.6709H493.203ZM491.391 36.0459C491.953 36.0459 492.438 36.1969 492.844 36.499C493.26 36.8011 493.469 37.3219 493.469 38.0615C493.469 38.7907 493.26 39.3115 492.844 39.624C492.438 39.9261 491.953 40.0771 491.391 40.0771C490.807 40.0771 490.312 39.9261 489.906 39.624C489.51 39.3115 489.312 38.7907 489.312 38.0615C489.312 37.3219 489.51 36.8011 489.906 36.499C490.312 36.1969 490.807 36.0459 491.391 36.0459ZM507.984 42.3428C509.932 42.3428 511.448 42.848 512.531 43.8584C513.625 44.8584 514.172 46.4678 514.172 48.6865V59.9678H510.5V49.374C510.5 48.0303 510.224 47.0251 509.672 46.3584C509.12 45.6813 508.266 45.3428 507.109 45.3428C505.432 45.3428 504.266 45.8584 503.609 46.8896C502.964 47.9209 502.641 49.4157 502.641 51.374V59.9678H498.969V42.6709H501.828L502.344 45.0146H502.547C502.922 44.4105 503.385 43.9157 503.938 43.5303C504.5 43.1344 505.125 42.8376 505.812 42.6396C506.51 42.4417 507.234 42.3428 507.984 42.3428ZM523.484 42.6709V59.9678H519.812V42.6709H523.484ZM521.672 36.0459C522.234 36.0459 522.719 36.1969 523.125 36.499C523.542 36.8011 523.75 37.3219 523.75 38.0615C523.75 38.7907 523.542 39.3115 523.125 39.624C522.719 39.9261 522.234 40.0771 521.672 40.0771C521.089 40.0771 520.594 39.9261 520.188 39.624C519.792 39.3115 519.594 38.7907 519.594 38.0615C519.594 37.3219 519.792 36.8011 520.188 36.499C520.594 36.1969 521.089 36.0459 521.672 36.0459ZM536.219 60.2803C534.583 60.2803 533.167 59.9626 531.969 59.3271C530.771 58.6917 529.849 57.7178 529.203 56.4053C528.557 55.0928 528.234 53.4261 528.234 51.4053C528.234 49.3011 528.589 47.5824 529.297 46.249C530.005 44.9157 530.984 43.9313 532.234 43.2959C533.495 42.6605 534.938 42.3428 536.562 42.3428C537.594 42.3428 538.526 42.4469 539.359 42.6553C540.203 42.8532 540.917 43.098 541.5 43.3896L540.406 46.3271C539.771 46.0667 539.12 45.848 538.453 45.6709C537.786 45.4938 537.146 45.4053 536.531 45.4053C535.521 45.4053 534.677 45.6292 534 46.0771C533.333 46.5251 532.833 47.1917 532.5 48.0771C532.177 48.9626 532.016 50.0615 532.016 51.374C532.016 52.6449 532.182 53.7178 532.516 54.5928C532.849 55.4574 533.344 56.1136 534 56.5615C534.656 56.999 535.464 57.2178 536.422 57.2178C537.37 57.2178 538.219 57.1032 538.969 56.874C539.719 56.6449 540.427 56.348 541.094 55.9834V59.1709C540.438 59.5459 539.734 59.8219 538.984 59.999C538.234 60.1865 537.312 60.2803 536.219 60.2803ZM549.328 42.6709V59.9678H545.656V42.6709H549.328ZM547.516 36.0459C548.078 36.0459 548.562 36.1969 548.969 36.499C549.385 36.8011 549.594 37.3219 549.594 38.0615C549.594 38.7907 549.385 39.3115 548.969 39.624C548.562 39.9261 548.078 40.0771 547.516 40.0771C546.932 40.0771 546.438 39.9261 546.031 39.624C545.635 39.3115 545.438 38.7907 545.438 38.0615C545.438 37.3219 545.635 36.8011 546.031 36.499C546.438 36.1969 546.932 36.0459 547.516 36.0459ZM561.875 42.3428C564.062 42.3428 565.714 42.8271 566.828 43.7959C567.953 44.7646 568.516 46.2751 568.516 48.3271V59.9678H565.906L565.203 57.5146H565.078C564.589 58.1396 564.083 58.6553 563.562 59.0615C563.042 59.4678 562.438 59.7699 561.75 59.9678C561.073 60.1761 560.245 60.2803 559.266 60.2803C558.234 60.2803 557.312 60.0928 556.5 59.7178C555.688 59.3324 555.047 58.749 554.578 57.9678C554.109 57.1865 553.875 56.1969 553.875 54.999C553.875 53.2178 554.536 51.8792 555.859 50.9834C557.193 50.0876 559.203 49.5928 561.891 49.499L564.891 49.3896V48.4834C564.891 47.2855 564.609 46.4313 564.047 45.9209C563.495 45.4105 562.714 45.1553 561.703 45.1553C560.839 45.1553 560 45.2803 559.188 45.5303C558.375 45.7803 557.583 46.0876 556.812 46.4521L555.625 43.8584C556.469 43.4105 557.427 43.0459 558.5 42.7646C559.583 42.4834 560.708 42.3428 561.875 42.3428ZM564.875 51.7021L562.641 51.7803C560.807 51.8428 559.521 52.1553 558.781 52.7178C558.042 53.2803 557.672 54.0511 557.672 55.0303C557.672 55.8844 557.927 56.5094 558.438 56.9053C558.948 57.2907 559.62 57.4834 560.453 57.4834C561.724 57.4834 562.776 57.124 563.609 56.4053C564.453 55.6761 564.875 54.6084 564.875 53.2021V51.7021ZM583.172 42.3428C585.12 42.3428 586.635 42.848 587.719 43.8584C588.812 44.8584 589.359 46.4678 589.359 48.6865V59.9678H585.688V49.374C585.688 48.0303 585.411 47.0251 584.859 46.3584C584.307 45.6813 583.453 45.3428 582.297 45.3428C580.62 45.3428 579.453 45.8584 578.797 46.8896C578.151 47.9209 577.828 49.4157 577.828 51.374V59.9678H574.156V42.6709H577.016L577.531 45.0146H577.734C578.109 44.4105 578.573 43.9157 579.125 43.5303C579.688 43.1344 580.312 42.8376 581 42.6396C581.698 42.4417 582.422 42.3428 583.172 42.3428ZM606.625 55.0303C606.625 56.1657 606.349 57.124 605.797 57.9053C605.245 58.6865 604.438 59.2803 603.375 59.6865C602.323 60.0824 601.031 60.2803 599.5 60.2803C598.292 60.2803 597.25 60.1917 596.375 60.0146C595.51 59.848 594.693 59.5876 593.922 59.2334V56.0615C594.745 56.4469 595.667 56.7803 596.688 57.0615C597.719 57.3428 598.693 57.4834 599.609 57.4834C600.818 57.4834 601.688 57.2959 602.219 56.9209C602.75 56.5355 603.016 56.0251 603.016 55.3896C603.016 55.0146 602.906 54.6813 602.688 54.3896C602.479 54.0876 602.083 53.7803 601.5 53.4678C600.927 53.1449 600.083 52.7594 598.969 52.3115C597.875 51.874 596.953 51.4365 596.203 50.999C595.453 50.5615 594.885 50.0355 594.5 49.4209C594.115 48.7959 593.922 47.999 593.922 47.0303C593.922 45.499 594.526 44.3376 595.734 43.5459C596.953 42.7438 598.562 42.3428 600.562 42.3428C601.625 42.3428 602.625 42.4521 603.562 42.6709C604.51 42.8792 605.438 43.1865 606.344 43.5928L605.188 46.3584C604.406 46.0146 603.62 45.7334 602.828 45.5146C602.047 45.2855 601.25 45.1709 600.438 45.1709C599.49 45.1709 598.766 45.3167 598.266 45.6084C597.776 45.9001 597.531 46.3167 597.531 46.8584C597.531 47.2646 597.651 47.6084 597.891 47.8896C598.13 48.1709 598.542 48.4521 599.125 48.7334C599.719 49.0146 600.542 49.3636 601.594 49.7803C602.625 50.1761 603.516 50.5928 604.266 51.0303C605.026 51.4574 605.609 51.9834 606.016 52.6084C606.422 53.2334 606.625 54.0407 606.625 55.0303ZM631.094 55.2803C631.094 56.374 630.818 57.2959 630.266 58.0459C629.724 58.7855 628.943 59.3428 627.922 59.7178C626.911 60.0928 625.703 60.2803 624.297 60.2803C623.099 60.2803 622.062 60.1865 621.188 59.999C620.312 59.8115 619.547 59.5459 618.891 59.2021V56.8115C619.589 57.1553 620.422 57.4678 621.391 57.749C622.359 58.0303 623.349 58.1709 624.359 58.1709C625.839 58.1709 626.911 57.9313 627.578 57.4521C628.245 56.973 628.578 56.3219 628.578 55.499C628.578 55.0303 628.443 54.6188 628.172 54.2646C627.911 53.9001 627.469 53.5511 626.844 53.2178C626.219 52.874 625.354 52.499 624.25 52.0928C623.156 51.6761 622.208 51.2646 621.406 50.8584C620.615 50.4417 620 49.9365 619.562 49.3428C619.135 48.749 618.922 47.9782 618.922 47.0303C618.922 45.5824 619.505 44.473 620.672 43.7021C621.849 42.9209 623.391 42.5303 625.297 42.5303C626.328 42.5303 627.292 42.6344 628.188 42.8428C629.094 43.0407 629.938 43.3115 630.719 43.6553L629.844 45.7334C629.135 45.4313 628.38 45.1761 627.578 44.9678C626.776 44.7594 625.958 44.6553 625.125 44.6553C623.927 44.6553 623.005 44.8532 622.359 45.249C621.724 45.6449 621.406 46.1865 621.406 46.874C621.406 47.4053 621.552 47.8428 621.844 48.1865C622.146 48.5303 622.625 48.8532 623.281 49.1553C623.938 49.4574 624.802 49.8115 625.875 50.2178C626.948 50.6136 627.875 51.0251 628.656 51.4521C629.438 51.8688 630.036 52.3792 630.453 52.9834C630.88 53.5771 631.094 54.3428 631.094 55.2803ZM638.359 35.6553V42.9209C638.359 43.3376 638.349 43.7594 638.328 44.1865C638.307 44.6032 638.271 44.9886 638.219 45.3428H638.391C638.745 44.7386 639.193 44.2334 639.734 43.8271C640.286 43.4105 640.911 43.098 641.609 42.8896C642.307 42.6709 643.047 42.5615 643.828 42.5615C645.203 42.5615 646.349 42.7803 647.266 43.2178C648.193 43.6553 648.885 44.3324 649.344 45.249C649.812 46.1657 650.047 47.3532 650.047 48.8115V59.9678H647.484V48.9834C647.484 47.5563 647.156 46.4886 646.5 45.7803C645.854 45.0719 644.859 44.7178 643.516 44.7178C642.245 44.7178 641.229 44.9626 640.469 45.4521C639.719 45.9313 639.177 46.6396 638.844 47.5771C638.521 48.5146 638.359 49.6605 638.359 51.0146V59.9678H635.766V35.6553H638.359ZM662.297 42.5615C664.339 42.5615 665.854 43.0199 666.844 43.9365C667.833 44.8532 668.328 46.3167 668.328 48.3271V59.9678H666.438L665.938 57.4365H665.812C665.333 58.0615 664.833 58.5876 664.312 59.0146C663.792 59.4313 663.188 59.749 662.5 59.9678C661.823 60.1761 660.99 60.2803 660 60.2803C658.958 60.2803 658.031 60.098 657.219 59.7334C656.417 59.3688 655.781 58.8167 655.312 58.0771C654.854 57.3376 654.625 56.4001 654.625 55.2646C654.625 53.5563 655.302 52.2438 656.656 51.3271C658.01 50.4105 660.073 49.9105 662.844 49.8271L665.797 49.7021V48.6553C665.797 47.1761 665.479 46.1396 664.844 45.5459C664.208 44.9521 663.312 44.6553 662.156 44.6553C661.26 44.6553 660.406 44.7855 659.594 45.0459C658.781 45.3063 658.01 45.6136 657.281 45.9678L656.484 43.999C657.255 43.6032 658.141 43.2646 659.141 42.9834C660.141 42.7021 661.193 42.5615 662.297 42.5615ZM665.766 51.5303L663.156 51.6396C661.021 51.723 659.516 52.0719 658.641 52.6865C657.766 53.3011 657.328 54.1709 657.328 55.2959C657.328 56.2751 657.625 56.999 658.219 57.4678C658.812 57.9365 659.599 58.1709 660.578 58.1709C662.099 58.1709 663.344 57.749 664.312 56.9053C665.281 56.0615 665.766 54.7959 665.766 53.1084V51.5303ZM681.953 42.5303C682.297 42.5303 682.656 42.5511 683.031 42.5928C683.406 42.624 683.74 42.6709 684.031 42.7334L683.703 45.1396C683.422 45.0667 683.109 45.0094 682.766 44.9678C682.422 44.9261 682.099 44.9053 681.797 44.9053C681.109 44.9053 680.458 45.0459 679.844 45.3271C679.24 45.598 678.708 45.9938 678.25 46.5146C677.792 47.0251 677.432 47.6449 677.172 48.374C676.911 49.0928 676.781 49.8949 676.781 50.7803V59.9678H674.172V42.8428H676.328L676.609 45.999H676.719C677.073 45.3636 677.5 44.7855 678 44.2646C678.5 43.7334 679.078 43.3115 679.734 42.999C680.401 42.6865 681.141 42.5303 681.953 42.5303ZM694.359 42.5303C695.818 42.5303 697.068 42.8532 698.109 43.499C699.151 44.1449 699.948 45.0511 700.5 46.2178C701.052 47.374 701.328 48.7282 701.328 50.2803V51.8896H689.5C689.531 53.9001 690.031 55.4313 691 56.4834C691.969 57.5355 693.333 58.0615 695.094 58.0615C696.177 58.0615 697.135 57.9626 697.969 57.7646C698.802 57.5667 699.667 57.2751 700.562 56.8896V59.1709C699.698 59.5563 698.839 59.8376 697.984 60.0146C697.141 60.1917 696.141 60.2803 694.984 60.2803C693.339 60.2803 691.901 59.9469 690.672 59.2803C689.453 58.6032 688.505 57.6136 687.828 56.3115C687.151 55.0094 686.812 53.4157 686.812 51.5303C686.812 49.6865 687.12 48.0928 687.734 46.749C688.359 45.3949 689.234 44.3532 690.359 43.624C691.495 42.8949 692.828 42.5303 694.359 42.5303ZM694.328 44.6553C692.943 44.6553 691.839 45.1084 691.016 46.0146C690.193 46.9209 689.703 48.1865 689.547 49.8115H698.609C698.599 48.7907 698.438 47.8949 698.125 47.124C697.823 46.3428 697.359 45.7386 696.734 45.3115C696.109 44.874 695.307 44.6553 694.328 44.6553ZM712.328 60.2803C710.161 60.2803 708.443 59.5407 707.172 58.0615C705.911 56.5824 705.281 54.3844 705.281 51.4678C705.281 48.5199 705.927 46.2959 707.219 44.7959C708.51 43.2855 710.229 42.5303 712.375 42.5303C713.281 42.5303 714.073 42.6501 714.75 42.8896C715.427 43.1292 716.01 43.4521 716.5 43.8584C716.99 44.2542 717.401 44.7074 717.734 45.2178H717.922C717.88 44.8949 717.839 44.4521 717.797 43.8896C717.755 43.3271 717.734 42.8688 717.734 42.5146V35.6553H720.328V59.9678H718.234L717.844 57.5303H717.734C717.411 58.0407 717 58.5042 716.5 58.9209C716.01 59.3376 715.422 59.6709 714.734 59.9209C714.057 60.1605 713.255 60.2803 712.328 60.2803ZM712.734 58.124C714.568 58.124 715.865 57.6032 716.625 56.5615C717.385 55.5199 717.766 53.973 717.766 51.9209V51.4521C717.766 49.2751 717.401 47.6032 716.672 46.4365C715.953 45.2699 714.641 44.6865 712.734 44.6865C711.141 44.6865 709.948 45.3011 709.156 46.5303C708.365 47.749 707.969 49.4157 707.969 51.5303C707.969 53.6344 708.359 55.2594 709.141 56.4053C709.932 57.5511 711.13 58.124 712.734 58.124ZM740.672 58.1553C741.099 58.1553 741.536 58.1188 741.984 58.0459C742.432 57.973 742.797 57.8844 743.078 57.7803V59.7959C742.776 59.9313 742.354 60.0459 741.812 60.1396C741.281 60.2334 740.76 60.2803 740.25 60.2803C739.344 60.2803 738.521 60.124 737.781 59.8115C737.042 59.4886 736.448 58.9469 736 58.1865C735.562 57.4261 735.344 56.374 735.344 55.0303V44.874H732.906V43.6084L735.359 42.5928L736.391 38.874H737.953V42.8428H742.969V44.874H737.953V54.9521C737.953 56.0251 738.198 56.8271 738.688 57.3584C739.188 57.8896 739.849 58.1553 740.672 58.1553ZM749.641 35.6553V42.9209C749.641 43.3376 749.63 43.7594 749.609 44.1865C749.589 44.6032 749.552 44.9886 749.5 45.3428H749.672C750.026 44.7386 750.474 44.2334 751.016 43.8271C751.568 43.4105 752.193 43.098 752.891 42.8896C753.589 42.6709 754.328 42.5615 755.109 42.5615C756.484 42.5615 757.63 42.7803 758.547 43.2178C759.474 43.6553 760.167 44.3324 760.625 45.249C761.094 46.1657 761.328 47.3532 761.328 48.8115V59.9678H758.766V48.9834C758.766 47.5563 758.438 46.4886 757.781 45.7803C757.135 45.0719 756.141 44.7178 754.797 44.7178C753.526 44.7178 752.51 44.9626 751.75 45.4521C751 45.9313 750.458 46.6396 750.125 47.5771C749.802 48.5146 749.641 49.6605 749.641 51.0146V59.9678H747.047V35.6553H749.641ZM769.766 42.8428V59.9678H767.172V42.8428H769.766ZM768.5 36.4365C768.927 36.4365 769.292 36.5771 769.594 36.8584C769.906 37.1292 770.062 37.5563 770.062 38.1396C770.062 38.7126 769.906 39.1396 769.594 39.4209C769.292 39.7021 768.927 39.8428 768.5 39.8428C768.052 39.8428 767.677 39.7021 767.375 39.4209C767.083 39.1396 766.938 38.7126 766.938 38.1396C766.938 37.5563 767.083 37.1292 767.375 36.8584C767.677 36.5771 768.052 36.4365 768.5 36.4365ZM786.844 55.2803C786.844 56.374 786.568 57.2959 786.016 58.0459C785.474 58.7855 784.693 59.3428 783.672 59.7178C782.661 60.0928 781.453 60.2803 780.047 60.2803C778.849 60.2803 777.812 60.1865 776.938 59.999C776.062 59.8115 775.297 59.5459 774.641 59.2021V56.8115C775.339 57.1553 776.172 57.4678 777.141 57.749C778.109 58.0303 779.099 58.1709 780.109 58.1709C781.589 58.1709 782.661 57.9313 783.328 57.4521C783.995 56.973 784.328 56.3219 784.328 55.499C784.328 55.0303 784.193 54.6188 783.922 54.2646C783.661 53.9001 783.219 53.5511 782.594 53.2178C781.969 52.874 781.104 52.499 780 52.0928C778.906 51.6761 777.958 51.2646 777.156 50.8584C776.365 50.4417 775.75 49.9365 775.312 49.3428C774.885 48.749 774.672 47.9782 774.672 47.0303C774.672 45.5824 775.255 44.473 776.422 43.7021C777.599 42.9209 779.141 42.5303 781.047 42.5303C782.078 42.5303 783.042 42.6344 783.938 42.8428C784.844 43.0407 785.688 43.3115 786.469 43.6553L785.594 45.7334C784.885 45.4313 784.13 45.1761 783.328 44.9678C782.526 44.7594 781.708 44.6553 780.875 44.6553C779.677 44.6553 778.755 44.8532 778.109 45.249C777.474 45.6449 777.156 46.1865 777.156 46.874C777.156 47.4053 777.302 47.8428 777.594 48.1865C777.896 48.5303 778.375 48.8532 779.031 49.1553C779.688 49.4574 780.552 49.8115 781.625 50.2178C782.698 50.6136 783.625 51.0251 784.406 51.4521C785.188 51.8688 785.786 52.3792 786.203 52.9834C786.63 53.5771 786.844 54.3428 786.844 55.2803ZM393.672 102.937L390.625 92.9678C390.49 92.5407 390.359 92.124 390.234 91.7178C390.12 91.3011 390.01 90.9053 389.906 90.5303C389.812 90.1449 389.724 89.7907 389.641 89.4678C389.568 89.1344 389.505 88.848 389.453 88.6084H389.344C389.302 88.848 389.245 89.1344 389.172 89.4678C389.099 89.7907 389.01 90.1449 388.906 90.5303C388.812 90.9157 388.708 91.3219 388.594 91.749C388.479 92.1657 388.349 92.5876 388.203 93.0146L385.016 102.937H382.094L377.375 85.8115H380.062L382.531 95.2646C382.698 95.8896 382.854 96.5094 383 97.124C383.156 97.7282 383.286 98.3011 383.391 98.8428C383.505 99.374 383.589 99.8376 383.641 100.233H383.766C383.828 99.973 383.896 99.6605 383.969 99.2959C384.052 98.9313 384.141 98.5459 384.234 98.1396C384.339 97.723 384.448 97.3115 384.562 96.9053C384.677 96.4886 384.792 96.098 384.906 95.7334L388.062 85.8115H390.859L393.906 95.7178C394.062 96.2178 394.214 96.7386 394.359 97.2803C394.516 97.8219 394.656 98.348 394.781 98.8584C394.906 99.3584 394.995 99.8063 395.047 100.202H395.172C395.214 99.848 395.292 99.4105 395.406 98.8896C395.521 98.3688 395.651 97.7959 395.797 97.1709C395.953 96.5459 396.115 95.9105 396.281 95.2646L398.781 85.8115H401.422L396.688 102.937H393.672ZM407.641 85.8428V102.968H405.047V85.8428H407.641ZM406.375 79.4365C406.802 79.4365 407.167 79.5771 407.469 79.8584C407.781 80.1292 407.938 80.5563 407.938 81.1396C407.938 81.7126 407.781 82.1396 407.469 82.4209C407.167 82.7021 406.802 82.8428 406.375 82.8428C405.927 82.8428 405.552 82.7021 405.25 82.4209C404.958 82.1396 404.812 81.7126 404.812 81.1396C404.812 80.5563 404.958 80.1292 405.25 79.8584C405.552 79.5771 405.927 79.4365 406.375 79.4365ZM419.172 101.155C419.599 101.155 420.036 101.119 420.484 101.046C420.932 100.973 421.297 100.884 421.578 100.78V102.796C421.276 102.931 420.854 103.046 420.312 103.14C419.781 103.233 419.26 103.28 418.75 103.28C417.844 103.28 417.021 103.124 416.281 102.812C415.542 102.489 414.948 101.947 414.5 101.187C414.062 100.426 413.844 99.374 413.844 98.0303V87.874H411.406V86.6084L413.859 85.5928L414.891 81.874H416.453V85.8428H421.469V87.874H416.453V97.9521C416.453 99.0251 416.698 99.8271 417.188 100.358C417.688 100.89 418.349 101.155 419.172 101.155ZM428.141 78.6553V85.9209C428.141 86.3376 428.13 86.7594 428.109 87.1865C428.089 87.6032 428.052 87.9886 428 88.3428H428.172C428.526 87.7386 428.974 87.2334 429.516 86.8271C430.068 86.4105 430.693 86.098 431.391 85.8896C432.089 85.6709 432.828 85.5615 433.609 85.5615C434.984 85.5615 436.13 85.7803 437.047 86.2178C437.974 86.6553 438.667 87.3324 439.125 88.249C439.594 89.1657 439.828 90.3532 439.828 91.8115V102.968H437.266V91.9834C437.266 90.5563 436.938 89.4886 436.281 88.7803C435.635 88.0719 434.641 87.7178 433.297 87.7178C432.026 87.7178 431.01 87.9626 430.25 88.4521C429.5 88.9313 428.958 89.6396 428.625 90.5771C428.302 91.5146 428.141 92.6605 428.141 94.0146V102.968H425.547V78.6553H428.141ZM460.016 101.155C460.443 101.155 460.88 101.119 461.328 101.046C461.776 100.973 462.141 100.884 462.422 100.78V102.796C462.12 102.931 461.698 103.046 461.156 103.14C460.625 103.233 460.104 103.28 459.594 103.28C458.688 103.28 457.865 103.124 457.125 102.812C456.385 102.489 455.792 101.947 455.344 101.187C454.906 100.426 454.688 99.374 454.688 98.0303V87.874H452.25V86.6084L454.703 85.5928L455.734 81.874H457.297V85.8428H462.312V87.874H457.297V97.9521C457.297 99.0251 457.542 99.8271 458.031 100.358C458.531 100.89 459.193 101.155 460.016 101.155ZM468.984 78.6553V85.9209C468.984 86.3376 468.974 86.7594 468.953 87.1865C468.932 87.6032 468.896 87.9886 468.844 88.3428H469.016C469.37 87.7386 469.818 87.2334 470.359 86.8271C470.911 86.4105 471.536 86.098 472.234 85.8896C472.932 85.6709 473.672 85.5615 474.453 85.5615C475.828 85.5615 476.974 85.7803 477.891 86.2178C478.818 86.6553 479.51 87.3324 479.969 88.249C480.438 89.1657 480.672 90.3532 480.672 91.8115V102.968H478.109V91.9834C478.109 90.5563 477.781 89.4886 477.125 88.7803C476.479 88.0719 475.484 87.7178 474.141 87.7178C472.87 87.7178 471.854 87.9626 471.094 88.4521C470.344 88.9313 469.802 89.6396 469.469 90.5771C469.146 91.5146 468.984 92.6605 468.984 94.0146V102.968H466.391V78.6553H468.984ZM493.109 85.5303C494.568 85.5303 495.818 85.8532 496.859 86.499C497.901 87.1449 498.698 88.0511 499.25 89.2178C499.802 90.374 500.078 91.7282 500.078 93.2803V94.8896H488.25C488.281 96.9001 488.781 98.4313 489.75 99.4834C490.719 100.535 492.083 101.062 493.844 101.062C494.927 101.062 495.885 100.963 496.719 100.765C497.552 100.567 498.417 100.275 499.312 99.8896V102.171C498.448 102.556 497.589 102.838 496.734 103.015C495.891 103.192 494.891 103.28 493.734 103.28C492.089 103.28 490.651 102.947 489.422 102.28C488.203 101.603 487.255 100.614 486.578 99.3115C485.901 98.0094 485.562 96.4157 485.562 94.5303C485.562 92.6865 485.87 91.0928 486.484 89.749C487.109 88.3949 487.984 87.3532 489.109 86.624C490.245 85.8949 491.578 85.5303 493.109 85.5303ZM493.078 87.6553C491.693 87.6553 490.589 88.1084 489.766 89.0146C488.943 89.9209 488.453 91.1865 488.297 92.8115H497.359C497.349 91.7907 497.188 90.8949 496.875 90.124C496.573 89.3428 496.109 88.7386 495.484 88.3115C494.859 87.874 494.057 87.6553 493.078 87.6553ZM507.578 85.8428V102.968H504.984V85.8428H507.578ZM506.312 79.4365C506.74 79.4365 507.104 79.5771 507.406 79.8584C507.719 80.1292 507.875 80.5563 507.875 81.1396C507.875 81.7126 507.719 82.1396 507.406 82.4209C507.104 82.7021 506.74 82.8428 506.312 82.8428C505.865 82.8428 505.49 82.7021 505.188 82.4209C504.896 82.1396 504.75 81.7126 504.75 81.1396C504.75 80.5563 504.896 80.1292 505.188 79.8584C505.49 79.5771 505.865 79.4365 506.312 79.4365ZM521.359 85.5303C521.703 85.5303 522.062 85.5511 522.438 85.5928C522.812 85.624 523.146 85.6709 523.438 85.7334L523.109 88.1396C522.828 88.0667 522.516 88.0094 522.172 87.9678C521.828 87.9261 521.505 87.9053 521.203 87.9053C520.516 87.9053 519.865 88.0459 519.25 88.3271C518.646 88.598 518.115 88.9938 517.656 89.5146C517.198 90.0251 516.839 90.6449 516.578 91.374C516.318 92.0928 516.188 92.8949 516.188 93.7803V102.968H513.578V85.8428H515.734L516.016 88.999H516.125C516.479 88.3636 516.906 87.7855 517.406 87.2646C517.906 86.7334 518.484 86.3115 519.141 85.999C519.807 85.6865 520.547 85.5303 521.359 85.5303ZM544.031 85.5303C546.167 85.5303 547.87 86.2646 549.141 87.7334C550.411 89.2021 551.047 91.4105 551.047 94.3584C551.047 96.3063 550.755 97.9417 550.172 99.2646C549.589 100.588 548.766 101.588 547.703 102.265C546.651 102.942 545.406 103.28 543.969 103.28C543.062 103.28 542.266 103.16 541.578 102.921C540.891 102.681 540.302 102.358 539.812 101.952C539.323 101.546 538.917 101.103 538.594 100.624H538.406C538.438 101.03 538.474 101.52 538.516 102.093C538.568 102.666 538.594 103.166 538.594 103.593V110.624H535.984V85.8428H538.125L538.469 88.374H538.594C538.927 87.8532 539.333 87.3792 539.812 86.9521C540.292 86.5146 540.875 86.1709 541.562 85.9209C542.26 85.6605 543.083 85.5303 544.031 85.5303ZM543.578 87.7178C542.391 87.7178 541.432 87.9469 540.703 88.4053C539.984 88.8636 539.458 89.5511 539.125 90.4678C538.792 91.374 538.615 92.5146 538.594 93.8896V94.3896C538.594 95.8376 538.75 97.0615 539.062 98.0615C539.385 99.0615 539.911 99.8219 540.641 100.343C541.38 100.864 542.37 101.124 543.609 101.124C544.672 101.124 545.557 100.838 546.266 100.265C546.974 99.6917 547.5 98.8949 547.844 97.874C548.198 96.8428 548.375 95.6605 548.375 94.3271C548.375 92.3063 547.979 90.7021 547.188 89.5146C546.406 88.3167 545.203 87.7178 543.578 87.7178ZM562.484 85.5615C564.526 85.5615 566.042 86.0199 567.031 86.9365C568.021 87.8532 568.516 89.3167 568.516 91.3271V102.968H566.625L566.125 100.437H566C565.521 101.062 565.021 101.588 564.5 102.015C563.979 102.431 563.375 102.749 562.688 102.968C562.01 103.176 561.177 103.28 560.188 103.28C559.146 103.28 558.219 103.098 557.406 102.733C556.604 102.369 555.969 101.817 555.5 101.077C555.042 100.338 554.812 99.4001 554.812 98.2646C554.812 96.5563 555.49 95.2438 556.844 94.3271C558.198 93.4105 560.26 92.9105 563.031 92.8271L565.984 92.7021V91.6553C565.984 90.1761 565.667 89.1396 565.031 88.5459C564.396 87.9521 563.5 87.6553 562.344 87.6553C561.448 87.6553 560.594 87.7855 559.781 88.0459C558.969 88.3063 558.198 88.6136 557.469 88.9678L556.672 86.999C557.443 86.6032 558.328 86.2646 559.328 85.9834C560.328 85.7021 561.38 85.5615 562.484 85.5615ZM565.953 94.5303L563.344 94.6396C561.208 94.723 559.703 95.0719 558.828 95.6865C557.953 96.3011 557.516 97.1709 557.516 98.2959C557.516 99.2751 557.812 99.999 558.406 100.468C559 100.937 559.786 101.171 560.766 101.171C562.286 101.171 563.531 100.749 564.5 99.9053C565.469 99.0615 565.953 97.7959 565.953 96.1084V94.5303ZM579.891 101.155C580.318 101.155 580.755 101.119 581.203 101.046C581.651 100.973 582.016 100.884 582.297 100.78V102.796C581.995 102.931 581.573 103.046 581.031 103.14C580.5 103.233 579.979 103.28 579.469 103.28C578.562 103.28 577.74 103.124 577 102.812C576.26 102.489 575.667 101.947 575.219 101.187C574.781 100.426 574.562 99.374 574.562 98.0303V87.874H572.125V86.6084L574.578 85.5928L575.609 81.874H577.172V85.8428H582.188V87.874H577.172V97.9521C577.172 99.0251 577.417 99.8271 577.906 100.358C578.406 100.89 579.068 101.155 579.891 101.155ZM588.859 85.8428V102.968H586.266V85.8428H588.859ZM587.594 79.4365C588.021 79.4365 588.385 79.5771 588.688 79.8584C589 80.1292 589.156 80.5563 589.156 81.1396C589.156 81.7126 589 82.1396 588.688 82.4209C588.385 82.7021 588.021 82.8428 587.594 82.8428C587.146 82.8428 586.771 82.7021 586.469 82.4209C586.177 82.1396 586.031 81.7126 586.031 81.1396C586.031 80.5563 586.177 80.1292 586.469 79.8584C586.771 79.5771 587.146 79.4365 587.594 79.4365ZM601.453 85.5303C602.911 85.5303 604.161 85.8532 605.203 86.499C606.245 87.1449 607.042 88.0511 607.594 89.2178C608.146 90.374 608.422 91.7282 608.422 93.2803V94.8896H596.594C596.625 96.9001 597.125 98.4313 598.094 99.4834C599.062 100.535 600.427 101.062 602.188 101.062C603.271 101.062 604.229 100.963 605.062 100.765C605.896 100.567 606.76 100.275 607.656 99.8896V102.171C606.792 102.556 605.932 102.838 605.078 103.015C604.234 103.192 603.234 103.28 602.078 103.28C600.432 103.28 598.995 102.947 597.766 102.28C596.547 101.603 595.599 100.614 594.922 99.3115C594.245 98.0094 593.906 96.4157 593.906 94.5303C593.906 92.6865 594.214 91.0928 594.828 89.749C595.453 88.3949 596.328 87.3532 597.453 86.624C598.589 85.8949 599.922 85.5303 601.453 85.5303ZM601.422 87.6553C600.036 87.6553 598.932 88.1084 598.109 89.0146C597.286 89.9209 596.797 91.1865 596.641 92.8115H605.703C605.693 91.7907 605.531 90.8949 605.219 90.124C604.917 89.3428 604.453 88.7386 603.828 88.3115C603.203 87.874 602.401 87.6553 601.422 87.6553ZM621.438 85.5303C623.469 85.5303 625.005 86.0303 626.047 87.0303C627.089 88.0199 627.609 89.6136 627.609 91.8115V102.968H625.047V91.9834C625.047 90.5563 624.719 89.4886 624.062 88.7803C623.417 88.0719 622.422 87.7178 621.078 87.7178C619.182 87.7178 617.849 88.2542 617.078 89.3271C616.307 90.4001 615.922 91.9574 615.922 93.999V102.968H613.328V85.8428H615.422L615.812 88.3115H615.953C616.318 87.7074 616.781 87.2021 617.344 86.7959C617.906 86.3792 618.536 86.0667 619.234 85.8584C619.932 85.6396 620.667 85.5303 621.438 85.5303ZM638.984 101.155C639.411 101.155 639.849 101.119 640.297 101.046C640.745 100.973 641.109 100.884 641.391 100.78V102.796C641.089 102.931 640.667 103.046 640.125 103.14C639.594 103.233 639.073 103.28 638.562 103.28C637.656 103.28 636.833 103.124 636.094 102.812C635.354 102.489 634.76 101.947 634.312 101.187C633.875 100.426 633.656 99.374 633.656 98.0303V87.874H631.219V86.6084L633.672 85.5928L634.703 81.874H636.266V85.8428H641.281V87.874H636.266V97.9521C636.266 99.0251 636.51 99.8271 637 100.358C637.5 100.89 638.161 101.155 638.984 101.155ZM656.438 98.2803C656.438 99.374 656.161 100.296 655.609 101.046C655.068 101.785 654.286 102.343 653.266 102.718C652.255 103.093 651.047 103.28 649.641 103.28C648.443 103.28 647.406 103.187 646.531 102.999C645.656 102.812 644.891 102.546 644.234 102.202V99.8115C644.932 100.155 645.766 100.468 646.734 100.749C647.703 101.03 648.693 101.171 649.703 101.171C651.182 101.171 652.255 100.931 652.922 100.452C653.589 99.973 653.922 99.3219 653.922 98.499C653.922 98.0303 653.786 97.6188 653.516 97.2646C653.255 96.9001 652.812 96.5511 652.188 96.2178C651.562 95.874 650.698 95.499 649.594 95.0928C648.5 94.6761 647.552 94.2646 646.75 93.8584C645.958 93.4417 645.344 92.9365 644.906 92.3428C644.479 91.749 644.266 90.9782 644.266 90.0303C644.266 88.5824 644.849 87.473 646.016 86.7021C647.193 85.9209 648.734 85.5303 650.641 85.5303C651.672 85.5303 652.635 85.6344 653.531 85.8428C654.438 86.0407 655.281 86.3115 656.062 86.6553L655.188 88.7334C654.479 88.4313 653.724 88.1761 652.922 87.9678C652.12 87.7594 651.302 87.6553 650.469 87.6553C649.271 87.6553 648.349 87.8532 647.703 88.249C647.068 88.6449 646.75 89.1865 646.75 89.874C646.75 90.4053 646.896 90.8428 647.188 91.1865C647.49 91.5303 647.969 91.8532 648.625 92.1553C649.281 92.4574 650.146 92.8115 651.219 93.2178C652.292 93.6136 653.219 94.0251 654 94.4521C654.781 94.8688 655.38 95.3792 655.797 95.9834C656.224 96.5771 656.438 97.3428 656.438 98.2803ZM676.328 85.5615C678.37 85.5615 679.885 86.0199 680.875 86.9365C681.865 87.8532 682.359 89.3167 682.359 91.3271V102.968H680.469L679.969 100.437H679.844C679.365 101.062 678.865 101.588 678.344 102.015C677.823 102.431 677.219 102.749 676.531 102.968C675.854 103.176 675.021 103.28 674.031 103.28C672.99 103.28 672.062 103.098 671.25 102.733C670.448 102.369 669.812 101.817 669.344 101.077C668.885 100.338 668.656 99.4001 668.656 98.2646C668.656 96.5563 669.333 95.2438 670.688 94.3271C672.042 93.4105 674.104 92.9105 676.875 92.8271L679.828 92.7021V91.6553C679.828 90.1761 679.51 89.1396 678.875 88.5459C678.24 87.9521 677.344 87.6553 676.188 87.6553C675.292 87.6553 674.438 87.7855 673.625 88.0459C672.812 88.3063 672.042 88.6136 671.312 88.9678L670.516 86.999C671.286 86.6032 672.172 86.2646 673.172 85.9834C674.172 85.7021 675.224 85.5615 676.328 85.5615ZM679.797 94.5303L677.188 94.6396C675.052 94.723 673.547 95.0719 672.672 95.6865C671.797 96.3011 671.359 97.1709 671.359 98.2959C671.359 99.2751 671.656 99.999 672.25 100.468C672.844 100.937 673.63 101.171 674.609 101.171C676.13 101.171 677.375 100.749 678.344 99.9053C679.312 99.0615 679.797 97.7959 679.797 96.1084V94.5303ZM696.312 85.5303C698.344 85.5303 699.88 86.0303 700.922 87.0303C701.964 88.0199 702.484 89.6136 702.484 91.8115V102.968H699.922V91.9834C699.922 90.5563 699.594 89.4886 698.938 88.7803C698.292 88.0719 697.297 87.7178 695.953 87.7178C694.057 87.7178 692.724 88.2542 691.953 89.3271C691.182 90.4001 690.797 91.9574 690.797 93.999V102.968H688.203V85.8428H690.297L690.688 88.3115H690.828C691.193 87.7074 691.656 87.2021 692.219 86.7959C692.781 86.3792 693.411 86.0667 694.109 85.8584C694.807 85.6396 695.542 85.5303 696.312 85.5303ZM714.422 103.28C712.255 103.28 710.536 102.541 709.266 101.062C708.005 99.5824 707.375 97.3844 707.375 94.4678C707.375 91.5199 708.021 89.2959 709.312 87.7959C710.604 86.2855 712.323 85.5303 714.469 85.5303C715.375 85.5303 716.167 85.6501 716.844 85.8896C717.521 86.1292 718.104 86.4521 718.594 86.8584C719.083 87.2542 719.495 87.7074 719.828 88.2178H720.016C719.974 87.8949 719.932 87.4521 719.891 86.8896C719.849 86.3271 719.828 85.8688 719.828 85.5146V78.6553H722.422V102.968H720.328L719.938 100.53H719.828C719.505 101.041 719.094 101.504 718.594 101.921C718.104 102.338 717.516 102.671 716.828 102.921C716.151 103.16 715.349 103.28 714.422 103.28ZM714.828 101.124C716.661 101.124 717.958 100.603 718.719 99.5615C719.479 98.5199 719.859 96.973 719.859 94.9209V94.4521C719.859 92.2751 719.495 90.6032 718.766 89.4365C718.047 88.2699 716.734 87.6865 714.828 87.6865C713.234 87.6865 712.042 88.3011 711.25 89.5303C710.458 90.749 710.062 92.4157 710.062 94.5303C710.062 96.6344 710.453 98.2594 711.234 99.4053C712.026 100.551 713.224 101.124 714.828 101.124ZM393.672 145.937L390.625 135.968C390.49 135.541 390.359 135.124 390.234 134.718C390.12 134.301 390.01 133.905 389.906 133.53C389.812 133.145 389.724 132.791 389.641 132.468C389.568 132.134 389.505 131.848 389.453 131.608H389.344C389.302 131.848 389.245 132.134 389.172 132.468C389.099 132.791 389.01 133.145 388.906 133.53C388.812 133.916 388.708 134.322 388.594 134.749C388.479 135.166 388.349 135.588 388.203 136.015L385.016 145.937H382.094L377.375 128.812H380.062L382.531 138.265C382.698 138.89 382.854 139.509 383 140.124C383.156 140.728 383.286 141.301 383.391 141.843C383.505 142.374 383.589 142.838 383.641 143.233H383.766C383.828 142.973 383.896 142.66 383.969 142.296C384.052 141.931 384.141 141.546 384.234 141.14C384.339 140.723 384.448 140.312 384.562 139.905C384.677 139.489 384.792 139.098 384.906 138.733L388.062 128.812H390.859L393.906 138.718C394.062 139.218 394.214 139.739 394.359 140.28C394.516 140.822 394.656 141.348 394.781 141.858C394.906 142.358 394.995 142.806 395.047 143.202H395.172C395.214 142.848 395.292 142.41 395.406 141.89C395.521 141.369 395.651 140.796 395.797 140.171C395.953 139.546 396.115 138.91 396.281 138.265L398.781 128.812H401.422L396.688 145.937H393.672ZM411.641 128.53C413.099 128.53 414.349 128.853 415.391 129.499C416.432 130.145 417.229 131.051 417.781 132.218C418.333 133.374 418.609 134.728 418.609 136.28V137.89H406.781C406.812 139.9 407.312 141.431 408.281 142.483C409.25 143.535 410.615 144.062 412.375 144.062C413.458 144.062 414.417 143.963 415.25 143.765C416.083 143.567 416.948 143.275 417.844 142.89V145.171C416.979 145.556 416.12 145.838 415.266 146.015C414.422 146.192 413.422 146.28 412.266 146.28C410.62 146.28 409.182 145.947 407.953 145.28C406.734 144.603 405.786 143.614 405.109 142.312C404.432 141.009 404.094 139.416 404.094 137.53C404.094 135.687 404.401 134.093 405.016 132.749C405.641 131.395 406.516 130.353 407.641 129.624C408.776 128.895 410.109 128.53 411.641 128.53ZM411.609 130.655C410.224 130.655 409.12 131.108 408.297 132.015C407.474 132.921 406.984 134.187 406.828 135.812H415.891C415.88 134.791 415.719 133.895 415.406 133.124C415.104 132.343 414.641 131.739 414.016 131.312C413.391 130.874 412.589 130.655 411.609 130.655ZM431.297 128.53C431.641 128.53 432 128.551 432.375 128.593C432.75 128.624 433.083 128.671 433.375 128.733L433.047 131.14C432.766 131.067 432.453 131.009 432.109 130.968C431.766 130.926 431.443 130.905 431.141 130.905C430.453 130.905 429.802 131.046 429.188 131.327C428.583 131.598 428.052 131.994 427.594 132.515C427.135 133.025 426.776 133.645 426.516 134.374C426.255 135.093 426.125 135.895 426.125 136.78V145.968H423.516V128.843H425.672L425.953 131.999H426.062C426.417 131.364 426.844 130.785 427.344 130.265C427.844 129.733 428.422 129.312 429.078 128.999C429.745 128.687 430.484 128.53 431.297 128.53ZM443.703 128.53C445.161 128.53 446.411 128.853 447.453 129.499C448.495 130.145 449.292 131.051 449.844 132.218C450.396 133.374 450.672 134.728 450.672 136.28V137.89H438.844C438.875 139.9 439.375 141.431 440.344 142.483C441.312 143.535 442.677 144.062 444.438 144.062C445.521 144.062 446.479 143.963 447.312 143.765C448.146 143.567 449.01 143.275 449.906 142.89V145.171C449.042 145.556 448.182 145.838 447.328 146.015C446.484 146.192 445.484 146.28 444.328 146.28C442.682 146.28 441.245 145.947 440.016 145.28C438.797 144.603 437.849 143.614 437.172 142.312C436.495 141.009 436.156 139.416 436.156 137.53C436.156 135.687 436.464 134.093 437.078 132.749C437.703 131.395 438.578 130.353 439.703 129.624C440.839 128.895 442.172 128.53 443.703 128.53ZM443.672 130.655C442.286 130.655 441.182 131.108 440.359 132.015C439.536 132.921 439.047 134.187 438.891 135.812H447.953C447.943 134.791 447.781 133.895 447.469 133.124C447.167 132.343 446.703 131.739 446.078 131.312C445.453 130.874 444.651 130.655 443.672 130.655ZM472.5 128.53C474.531 128.53 476.068 129.03 477.109 130.03C478.151 131.02 478.672 132.614 478.672 134.812V145.968H476.109V134.983C476.109 133.556 475.781 132.489 475.125 131.78C474.479 131.072 473.484 130.718 472.141 130.718C470.245 130.718 468.911 131.254 468.141 132.327C467.37 133.4 466.984 134.957 466.984 136.999V145.968H464.391V128.843H466.484L466.875 131.312H467.016C467.38 130.707 467.844 130.202 468.406 129.796C468.969 129.379 469.599 129.067 470.297 128.858C470.995 128.64 471.729 128.53 472.5 128.53ZM499.281 137.374C499.281 138.78 499.099 140.035 498.734 141.14C498.37 142.244 497.844 143.176 497.156 143.937C496.469 144.697 495.635 145.28 494.656 145.687C493.688 146.082 492.589 146.28 491.359 146.28C490.214 146.28 489.161 146.082 488.203 145.687C487.255 145.28 486.432 144.697 485.734 143.937C485.047 143.176 484.51 142.244 484.125 141.14C483.75 140.035 483.562 138.78 483.562 137.374C483.562 135.499 483.88 133.905 484.516 132.593C485.151 131.27 486.057 130.265 487.234 129.577C488.422 128.879 489.833 128.53 491.469 128.53C493.031 128.53 494.396 128.879 495.562 129.577C496.74 130.275 497.651 131.285 498.297 132.608C498.953 133.921 499.281 135.509 499.281 137.374ZM486.25 137.374C486.25 138.749 486.432 139.942 486.797 140.952C487.161 141.963 487.724 142.744 488.484 143.296C489.245 143.848 490.224 144.124 491.422 144.124C492.609 144.124 493.583 143.848 494.344 143.296C495.115 142.744 495.682 141.963 496.047 140.952C496.411 139.942 496.594 138.749 496.594 137.374C496.594 136.009 496.411 134.832 496.047 133.843C495.682 132.843 495.12 132.072 494.359 131.53C493.599 130.989 492.615 130.718 491.406 130.718C489.625 130.718 488.318 131.306 487.484 132.483C486.661 133.66 486.25 135.291 486.25 137.374ZM509.797 144.155C510.224 144.155 510.661 144.119 511.109 144.046C511.557 143.973 511.922 143.884 512.203 143.78V145.796C511.901 145.931 511.479 146.046 510.938 146.14C510.406 146.233 509.885 146.28 509.375 146.28C508.469 146.28 507.646 146.124 506.906 145.812C506.167 145.489 505.573 144.947 505.125 144.187C504.688 143.426 504.469 142.374 504.469 141.03V130.874H502.031V129.608L504.484 128.593L505.516 124.874H507.078V128.843H512.094V130.874H507.078V140.952C507.078 142.025 507.323 142.827 507.812 143.358C508.312 143.89 508.974 144.155 509.797 144.155ZM531.844 146.28C530.302 146.28 528.943 145.963 527.766 145.327C526.589 144.692 525.672 143.723 525.016 142.421C524.359 141.119 524.031 139.478 524.031 137.499C524.031 135.426 524.375 133.733 525.062 132.421C525.76 131.098 526.719 130.119 527.938 129.483C529.156 128.848 530.542 128.53 532.094 128.53C532.948 128.53 533.771 128.619 534.562 128.796C535.365 128.963 536.021 129.176 536.531 129.437L535.75 131.608C535.229 131.4 534.625 131.213 533.938 131.046C533.26 130.879 532.625 130.796 532.031 130.796C530.844 130.796 529.854 131.051 529.062 131.562C528.281 132.072 527.693 132.822 527.297 133.812C526.911 134.801 526.719 136.02 526.719 137.468C526.719 138.853 526.906 140.035 527.281 141.015C527.667 141.994 528.234 142.744 528.984 143.265C529.745 143.775 530.693 144.03 531.828 144.03C532.734 144.03 533.552 143.937 534.281 143.749C535.01 143.551 535.672 143.322 536.266 143.062V145.374C535.693 145.666 535.052 145.89 534.344 146.046C533.646 146.202 532.812 146.28 531.844 146.28ZM555.594 137.374C555.594 138.78 555.411 140.035 555.047 141.14C554.682 142.244 554.156 143.176 553.469 143.937C552.781 144.697 551.948 145.28 550.969 145.687C550 146.082 548.901 146.28 547.672 146.28C546.526 146.28 545.474 146.082 544.516 145.687C543.568 145.28 542.745 144.697 542.047 143.937C541.359 143.176 540.823 142.244 540.438 141.14C540.062 140.035 539.875 138.78 539.875 137.374C539.875 135.499 540.193 133.905 540.828 132.593C541.464 131.27 542.37 130.265 543.547 129.577C544.734 128.879 546.146 128.53 547.781 128.53C549.344 128.53 550.708 128.879 551.875 129.577C553.052 130.275 553.964 131.285 554.609 132.608C555.266 133.921 555.594 135.509 555.594 137.374ZM542.562 137.374C542.562 138.749 542.745 139.942 543.109 140.952C543.474 141.963 544.036 142.744 544.797 143.296C545.557 143.848 546.536 144.124 547.734 144.124C548.922 144.124 549.896 143.848 550.656 143.296C551.427 142.744 551.995 141.963 552.359 140.952C552.724 139.942 552.906 138.749 552.906 137.374C552.906 136.009 552.724 134.832 552.359 133.843C551.995 132.843 551.432 132.072 550.672 131.53C549.911 130.989 548.927 130.718 547.719 130.718C545.938 130.718 544.63 131.306 543.797 132.483C542.974 133.66 542.562 135.291 542.562 137.374ZM579.172 128.53C581.057 128.53 582.479 129.025 583.438 130.015C584.396 130.994 584.875 132.572 584.875 134.749V145.968H582.312V134.874C582.312 133.489 582.01 132.452 581.406 131.765C580.812 131.067 579.927 130.718 578.75 130.718C577.094 130.718 575.891 131.197 575.141 132.155C574.391 133.114 574.016 134.525 574.016 136.39V145.968H571.438V134.874C571.438 133.947 571.302 133.176 571.031 132.562C570.771 131.947 570.375 131.489 569.844 131.187C569.323 130.874 568.661 130.718 567.859 130.718C566.724 130.718 565.812 130.952 565.125 131.421C564.438 131.89 563.938 132.588 563.625 133.515C563.323 134.431 563.172 135.562 563.172 136.905V145.968H560.578V128.843H562.672L563.062 131.265H563.203C563.547 130.671 563.979 130.171 564.5 129.765C565.021 129.358 565.604 129.051 566.25 128.843C566.896 128.634 567.583 128.53 568.312 128.53C569.615 128.53 570.703 128.775 571.578 129.265C572.464 129.744 573.104 130.478 573.5 131.468H573.641C574.203 130.478 574.974 129.744 575.953 129.265C576.932 128.775 578.005 128.53 579.172 128.53ZM598.75 128.53C600.885 128.53 602.589 129.265 603.859 130.733C605.13 132.202 605.766 134.41 605.766 137.358C605.766 139.306 605.474 140.942 604.891 142.265C604.307 143.588 603.484 144.588 602.422 145.265C601.37 145.942 600.125 146.28 598.688 146.28C597.781 146.28 596.984 146.16 596.297 145.921C595.609 145.681 595.021 145.358 594.531 144.952C594.042 144.546 593.635 144.103 593.312 143.624H593.125C593.156 144.03 593.193 144.52 593.234 145.093C593.286 145.666 593.312 146.166 593.312 146.593V153.624H590.703V128.843H592.844L593.188 131.374H593.312C593.646 130.853 594.052 130.379 594.531 129.952C595.01 129.515 595.594 129.171 596.281 128.921C596.979 128.66 597.802 128.53 598.75 128.53ZM598.297 130.718C597.109 130.718 596.151 130.947 595.422 131.405C594.703 131.864 594.177 132.551 593.844 133.468C593.51 134.374 593.333 135.515 593.312 136.89V137.39C593.312 138.838 593.469 140.062 593.781 141.062C594.104 142.062 594.63 142.822 595.359 143.343C596.099 143.864 597.089 144.124 598.328 144.124C599.391 144.124 600.276 143.838 600.984 143.265C601.693 142.692 602.219 141.895 602.562 140.874C602.917 139.843 603.094 138.66 603.094 137.327C603.094 135.306 602.698 133.702 601.906 132.515C601.125 131.317 599.922 130.718 598.297 130.718ZM617.391 128.53C618.849 128.53 620.099 128.853 621.141 129.499C622.182 130.145 622.979 131.051 623.531 132.218C624.083 133.374 624.359 134.728 624.359 136.28V137.89H612.531C612.562 139.9 613.062 141.431 614.031 142.483C615 143.535 616.365 144.062 618.125 144.062C619.208 144.062 620.167 143.963 621 143.765C621.833 143.567 622.698 143.275 623.594 142.89V145.171C622.729 145.556 621.87 145.838 621.016 146.015C620.172 146.192 619.172 146.28 618.016 146.28C616.37 146.28 614.932 145.947 613.703 145.28C612.484 144.603 611.536 143.614 610.859 142.312C610.182 141.009 609.844 139.416 609.844 137.53C609.844 135.687 610.151 134.093 610.766 132.749C611.391 131.395 612.266 130.353 613.391 129.624C614.526 128.895 615.859 128.53 617.391 128.53ZM617.359 130.655C615.974 130.655 614.87 131.108 614.047 132.015C613.224 132.921 612.734 134.187 612.578 135.812H621.641C621.63 134.791 621.469 133.895 621.156 133.124C620.854 132.343 620.391 131.739 619.766 131.312C619.141 130.874 618.339 130.655 617.359 130.655ZM637.375 128.53C639.406 128.53 640.943 129.03 641.984 130.03C643.026 131.02 643.547 132.614 643.547 134.812V145.968H640.984V134.983C640.984 133.556 640.656 132.489 640 131.78C639.354 131.072 638.359 130.718 637.016 130.718C635.12 130.718 633.786 131.254 633.016 132.327C632.245 133.4 631.859 134.957 631.859 136.999V145.968H629.266V128.843H631.359L631.75 131.312H631.891C632.255 130.707 632.719 130.202 633.281 129.796C633.844 129.379 634.474 129.067 635.172 128.858C635.87 128.64 636.604 128.53 637.375 128.53ZM660.469 141.28C660.469 142.374 660.193 143.296 659.641 144.046C659.099 144.785 658.318 145.343 657.297 145.718C656.286 146.093 655.078 146.28 653.672 146.28C652.474 146.28 651.438 146.187 650.562 145.999C649.688 145.812 648.922 145.546 648.266 145.202V142.812C648.964 143.155 649.797 143.468 650.766 143.749C651.734 144.03 652.724 144.171 653.734 144.171C655.214 144.171 656.286 143.931 656.953 143.452C657.62 142.973 657.953 142.322 657.953 141.499C657.953 141.03 657.818 140.619 657.547 140.265C657.286 139.9 656.844 139.551 656.219 139.218C655.594 138.874 654.729 138.499 653.625 138.093C652.531 137.676 651.583 137.265 650.781 136.858C649.99 136.442 649.375 135.937 648.938 135.343C648.51 134.749 648.297 133.978 648.297 133.03C648.297 131.582 648.88 130.473 650.047 129.702C651.224 128.921 652.766 128.53 654.672 128.53C655.703 128.53 656.667 128.634 657.562 128.843C658.469 129.041 659.312 129.312 660.094 129.655L659.219 131.733C658.51 131.431 657.755 131.176 656.953 130.968C656.151 130.759 655.333 130.655 654.5 130.655C653.302 130.655 652.38 130.853 651.734 131.249C651.099 131.645 650.781 132.187 650.781 132.874C650.781 133.405 650.927 133.843 651.219 134.187C651.521 134.53 652 134.853 652.656 135.155C653.312 135.457 654.177 135.812 655.25 136.218C656.323 136.614 657.25 137.025 658.031 137.452C658.812 137.869 659.411 138.379 659.828 138.983C660.255 139.577 660.469 140.343 660.469 141.28ZM671.547 128.562C673.589 128.562 675.104 129.02 676.094 129.937C677.083 130.853 677.578 132.317 677.578 134.327V145.968H675.688L675.188 143.437H675.062C674.583 144.062 674.083 144.588 673.562 145.015C673.042 145.431 672.438 145.749 671.75 145.968C671.073 146.176 670.24 146.28 669.25 146.28C668.208 146.28 667.281 146.098 666.469 145.733C665.667 145.369 665.031 144.817 664.562 144.077C664.104 143.338 663.875 142.4 663.875 141.265C663.875 139.556 664.552 138.244 665.906 137.327C667.26 136.41 669.323 135.91 672.094 135.827L675.047 135.702V134.655C675.047 133.176 674.729 132.14 674.094 131.546C673.458 130.952 672.562 130.655 671.406 130.655C670.51 130.655 669.656 130.785 668.844 131.046C668.031 131.306 667.26 131.614 666.531 131.968L665.734 129.999C666.505 129.603 667.391 129.265 668.391 128.983C669.391 128.702 670.443 128.562 671.547 128.562ZM675.016 137.53L672.406 137.64C670.271 137.723 668.766 138.072 667.891 138.687C667.016 139.301 666.578 140.171 666.578 141.296C666.578 142.275 666.875 142.999 667.469 143.468C668.062 143.937 668.849 144.171 669.828 144.171C671.349 144.171 672.594 143.749 673.562 142.905C674.531 142.062 675.016 140.796 675.016 139.108V137.53ZM688.953 144.155C689.38 144.155 689.818 144.119 690.266 144.046C690.714 143.973 691.078 143.884 691.359 143.78V145.796C691.057 145.931 690.635 146.046 690.094 146.14C689.562 146.233 689.042 146.28 688.531 146.28C687.625 146.28 686.802 146.124 686.062 145.812C685.323 145.489 684.729 144.947 684.281 144.187C683.844 143.426 683.625 142.374 683.625 141.03V130.874H681.188V129.608L683.641 128.593L684.672 124.874H686.234V128.843H691.25V130.874H686.234V140.952C686.234 142.025 686.479 142.827 686.969 143.358C687.469 143.89 688.13 144.155 688.953 144.155ZM701.922 128.53C703.38 128.53 704.63 128.853 705.672 129.499C706.714 130.145 707.51 131.051 708.062 132.218C708.615 133.374 708.891 134.728 708.891 136.28V137.89H697.062C697.094 139.9 697.594 141.431 698.562 142.483C699.531 143.535 700.896 144.062 702.656 144.062C703.74 144.062 704.698 143.963 705.531 143.765C706.365 143.567 707.229 143.275 708.125 142.89V145.171C707.26 145.556 706.401 145.838 705.547 146.015C704.703 146.192 703.703 146.28 702.547 146.28C700.901 146.28 699.464 145.947 698.234 145.28C697.016 144.603 696.068 143.614 695.391 142.312C694.714 141.009 694.375 139.416 694.375 137.53C694.375 135.687 694.682 134.093 695.297 132.749C695.922 131.395 696.797 130.353 697.922 129.624C699.057 128.895 700.391 128.53 701.922 128.53ZM701.891 130.655C700.505 130.655 699.401 131.108 698.578 132.015C697.755 132.921 697.266 134.187 697.109 135.812H706.172C706.161 134.791 706 133.895 705.688 133.124C705.385 132.343 704.922 131.739 704.297 131.312C703.672 130.874 702.87 130.655 701.891 130.655ZM719.891 146.28C717.724 146.28 716.005 145.541 714.734 144.062C713.474 142.582 712.844 140.384 712.844 137.468C712.844 134.52 713.49 132.296 714.781 130.796C716.073 129.285 717.792 128.53 719.938 128.53C720.844 128.53 721.635 128.65 722.312 128.89C722.99 129.129 723.573 129.452 724.062 129.858C724.552 130.254 724.964 130.707 725.297 131.218H725.484C725.443 130.895 725.401 130.452 725.359 129.89C725.318 129.327 725.297 128.869 725.297 128.515V121.655H727.891V145.968H725.797L725.406 143.53H725.297C724.974 144.041 724.562 144.504 724.062 144.921C723.573 145.338 722.984 145.671 722.297 145.921C721.62 146.16 720.818 146.28 719.891 146.28ZM720.297 144.124C722.13 144.124 723.427 143.603 724.188 142.562C724.948 141.52 725.328 139.973 725.328 137.921V137.452C725.328 135.275 724.964 133.603 724.234 132.437C723.516 131.27 722.203 130.687 720.297 130.687C718.703 130.687 717.51 131.301 716.719 132.53C715.927 133.749 715.531 135.416 715.531 137.53C715.531 139.634 715.922 141.259 716.703 142.405C717.495 143.551 718.693 144.124 720.297 144.124ZM733.5 144.343C733.5 143.614 733.677 143.098 734.031 142.796C734.385 142.483 734.818 142.327 735.328 142.327C735.859 142.327 736.307 142.483 736.672 142.796C737.036 143.098 737.219 143.614 737.219 144.343C737.219 145.062 737.036 145.588 736.672 145.921C736.307 146.244 735.859 146.405 735.328 146.405C734.818 146.405 734.385 146.244 734.031 145.921C733.677 145.588 733.5 145.062 733.5 144.343Z" fill="white"/>
<defs>
<clipPath id="clip0_1_2279">
<rect width="112" height="16" fill="white" transform="translate(170.016 134.468)"/>
</clipPath>
</defs>
</svg>
